<mxfile host="app.diagrams.net" modified="2024-02-15T16:59:39.549Z" agent="Mozilla/5.0 (Windows NT 10.0; Win64; x64) AppleWebKit/537.36 (KHTML, like Gecko) Chrome/121.0.0.0 Safari/537.36 Edg/121.0.0.0" etag="Sc9XcxRqp0ZdXUj_3xqw" version="23.0.1" type="onedrive">
  <diagram id="C5RBs43oDa-KdzZeNtuy" name="Page-1">
    <mxGraphModel grid="1" page="1" gridSize="10" guides="1" tooltips="1" connect="1" arrows="1" fold="1" pageScale="1" pageWidth="827" pageHeight="1169" math="0" shadow="0">
      <root>
        <mxCell id="WIyWlLk6GJQsqaUBKTNV-0" />
        <mxCell id="WIyWlLk6GJQsqaUBKTNV-1" parent="WIyWlLk6GJQsqaUBKTNV-0" />
        <mxCell id="JpFROwRJeTPu5kX1mH_b-232" style="edgeStyle=orthogonalEdgeStyle;rounded=0;orthogonalLoop=1;jettySize=auto;html=1;exitX=0;exitY=0.5;exitDx=0;exitDy=0;movable=0;resizable=0;rotatable=0;deletable=0;editable=0;locked=1;connectable=0;" edge="1" parent="WIyWlLk6GJQsqaUBKTNV-1" source="JpFROwRJeTPu5kX1mH_b-157">
          <mxGeometry relative="1" as="geometry">
            <mxPoint x="840" y="-600" as="targetPoint" />
          </mxGeometry>
        </mxCell>
        <mxCell id="JpFROwRJeTPu5kX1mH_b-157" value="&lt;font style=&quot;font-size: 6px;&quot;&gt;calls Finding4thGrade function&lt;/font&gt;" style="whiteSpace=wrap;html=1;rounded=1;shadow=1;movable=0;resizable=0;rotatable=0;deletable=0;editable=0;locked=1;connectable=0;" vertex="1" parent="WIyWlLk6GJQsqaUBKTNV-1">
          <mxGeometry x="930" y="-800" width="70" height="30" as="geometry" />
        </mxCell>
        <mxCell id="JpFROwRJeTPu5kX1mH_b-120" style="edgeStyle=orthogonalEdgeStyle;rounded=0;orthogonalLoop=1;jettySize=auto;html=1;exitX=0.5;exitY=1;exitDx=0;exitDy=0;entryX=0.5;entryY=0;entryDx=0;entryDy=0;movable=0;resizable=0;rotatable=0;deletable=0;editable=0;locked=1;connectable=0;" edge="1" parent="WIyWlLk6GJQsqaUBKTNV-1" source="JpFROwRJeTPu5kX1mH_b-5" target="JpFROwRJeTPu5kX1mH_b-98">
          <mxGeometry relative="1" as="geometry" />
        </mxCell>
        <mxCell id="JpFROwRJeTPu5kX1mH_b-5" value="add grade for a student" style="rounded=1;whiteSpace=wrap;html=1;shadow=1;movable=0;resizable=0;rotatable=0;deletable=0;editable=0;locked=1;connectable=0;" vertex="1" parent="WIyWlLk6GJQsqaUBKTNV-1">
          <mxGeometry x="1430" y="-900" width="80" height="30" as="geometry" />
        </mxCell>
        <mxCell id="WIyWlLk6GJQsqaUBKTNV-3" value="Menu" style="rounded=1;whiteSpace=wrap;html=1;fontSize=12;glass=0;strokeWidth=1;shadow=0;movable=0;resizable=0;rotatable=0;deletable=0;editable=0;locked=1;connectable=0;" vertex="1" parent="WIyWlLk6GJQsqaUBKTNV-1">
          <mxGeometry x="1004" y="-1010" width="120" height="40" as="geometry" />
        </mxCell>
        <mxCell id="JpFROwRJeTPu5kX1mH_b-15" value="Add a new student" style="rounded=1;whiteSpace=wrap;html=1;shadow=1;movable=0;resizable=0;rotatable=0;deletable=0;editable=0;locked=1;connectable=0;" vertex="1" parent="WIyWlLk6GJQsqaUBKTNV-1">
          <mxGeometry x="1024" y="-900" width="80" height="30" as="geometry" />
        </mxCell>
        <mxCell id="JpFROwRJeTPu5kX1mH_b-126" style="edgeStyle=orthogonalEdgeStyle;rounded=0;orthogonalLoop=1;jettySize=auto;html=1;exitX=0.5;exitY=1;exitDx=0;exitDy=0;entryX=0.5;entryY=0;entryDx=0;entryDy=0;movable=0;resizable=0;rotatable=0;deletable=0;editable=0;locked=1;connectable=0;" edge="1" parent="WIyWlLk6GJQsqaUBKTNV-1" source="JpFROwRJeTPu5kX1mH_b-16" target="JpFROwRJeTPu5kX1mH_b-124">
          <mxGeometry relative="1" as="geometry" />
        </mxCell>
        <mxCell id="JpFROwRJeTPu5kX1mH_b-16" value="4th grade prediction" style="rounded=1;whiteSpace=wrap;html=1;shadow=1;movable=0;resizable=0;rotatable=0;deletable=0;editable=0;locked=1;connectable=0;" vertex="1" parent="WIyWlLk6GJQsqaUBKTNV-1">
          <mxGeometry x="924" y="-900" width="80" height="30" as="geometry" />
        </mxCell>
        <mxCell id="JpFROwRJeTPu5kX1mH_b-134" value="" style="edgeStyle=orthogonalEdgeStyle;rounded=0;orthogonalLoop=1;jettySize=auto;html=1;movable=0;resizable=0;rotatable=0;deletable=0;editable=0;locked=1;connectable=0;" edge="1" parent="WIyWlLk6GJQsqaUBKTNV-1" source="JpFROwRJeTPu5kX1mH_b-17" target="JpFROwRJeTPu5kX1mH_b-133">
          <mxGeometry relative="1" as="geometry" />
        </mxCell>
        <mxCell id="JpFROwRJeTPu5kX1mH_b-17" value="save data to file" style="rounded=1;whiteSpace=wrap;html=1;shadow=1;movable=0;resizable=0;rotatable=0;deletable=0;editable=0;locked=1;connectable=0;" vertex="1" parent="WIyWlLk6GJQsqaUBKTNV-1">
          <mxGeometry x="820" y="-900" width="80" height="30" as="geometry" />
        </mxCell>
        <mxCell id="JpFROwRJeTPu5kX1mH_b-129" value="add info to the displaying function" style="edgeStyle=orthogonalEdgeStyle;rounded=0;orthogonalLoop=1;jettySize=auto;html=1;exitX=0.5;exitY=1;exitDx=0;exitDy=0;entryX=0.07;entryY=1;entryDx=0;entryDy=0;entryPerimeter=0;movable=0;resizable=0;rotatable=0;deletable=0;editable=0;locked=1;connectable=0;" edge="1" parent="WIyWlLk6GJQsqaUBKTNV-1" source="JpFROwRJeTPu5kX1mH_b-18" target="JpFROwRJeTPu5kX1mH_b-47">
          <mxGeometry x="0.1536" relative="1" as="geometry">
            <mxPoint x="810" y="-800" as="targetPoint" />
            <Array as="points">
              <mxPoint x="750" y="-760" />
              <mxPoint x="1130" y="-760" />
            </Array>
            <mxPoint as="offset" />
          </mxGeometry>
        </mxCell>
        <mxCell id="JpFROwRJeTPu5kX1mH_b-180" style="edgeStyle=orthogonalEdgeStyle;rounded=0;orthogonalLoop=1;jettySize=auto;html=1;movable=0;resizable=0;rotatable=0;deletable=0;editable=0;locked=1;connectable=0;" edge="1" parent="WIyWlLk6GJQsqaUBKTNV-1" source="JpFROwRJeTPu5kX1mH_b-18" target="JpFROwRJeTPu5kX1mH_b-181">
          <mxGeometry relative="1" as="geometry">
            <mxPoint x="750" y="-740" as="targetPoint" />
          </mxGeometry>
        </mxCell>
        <mxCell id="JpFROwRJeTPu5kX1mH_b-18" value="Load data from file" style="rounded=1;whiteSpace=wrap;html=1;shadow=1;movable=0;resizable=0;rotatable=0;deletable=0;editable=0;locked=1;connectable=0;" vertex="1" parent="WIyWlLk6GJQsqaUBKTNV-1">
          <mxGeometry x="710" y="-900" width="80" height="30" as="geometry" />
        </mxCell>
        <mxCell id="JpFROwRJeTPu5kX1mH_b-118" style="edgeStyle=orthogonalEdgeStyle;rounded=0;orthogonalLoop=1;jettySize=auto;html=1;exitX=0.5;exitY=1;exitDx=0;exitDy=0;entryX=0.5;entryY=0;entryDx=0;entryDy=0;movable=0;resizable=0;rotatable=0;deletable=0;editable=0;locked=1;connectable=0;" edge="1" parent="WIyWlLk6GJQsqaUBKTNV-1" source="JpFROwRJeTPu5kX1mH_b-20" target="JpFROwRJeTPu5kX1mH_b-102">
          <mxGeometry relative="1" as="geometry" />
        </mxCell>
        <mxCell id="JpFROwRJeTPu5kX1mH_b-20" value="edit student info" style="rounded=1;whiteSpace=wrap;html=1;shadow=1;movable=0;resizable=0;rotatable=0;deletable=0;editable=0;locked=1;connectable=0;" vertex="1" parent="WIyWlLk6GJQsqaUBKTNV-1">
          <mxGeometry x="1230" y="-900" width="80" height="30" as="geometry" />
        </mxCell>
        <mxCell id="JpFROwRJeTPu5kX1mH_b-117" style="edgeStyle=orthogonalEdgeStyle;rounded=0;orthogonalLoop=1;jettySize=auto;html=1;exitX=0.5;exitY=1;exitDx=0;exitDy=0;entryX=0.5;entryY=0;entryDx=0;entryDy=0;movable=0;resizable=0;rotatable=0;deletable=0;editable=0;locked=1;connectable=0;" edge="1" parent="WIyWlLk6GJQsqaUBKTNV-1" source="JpFROwRJeTPu5kX1mH_b-21" target="JpFROwRJeTPu5kX1mH_b-101">
          <mxGeometry relative="1" as="geometry" />
        </mxCell>
        <mxCell id="JpFROwRJeTPu5kX1mH_b-21" value="edit student&#39;s grade" style="rounded=1;whiteSpace=wrap;html=1;shadow=1;movable=0;resizable=0;rotatable=0;deletable=0;editable=0;locked=1;connectable=0;" vertex="1" parent="WIyWlLk6GJQsqaUBKTNV-1">
          <mxGeometry x="1330" y="-900" width="80" height="30" as="geometry" />
        </mxCell>
        <mxCell id="JpFROwRJeTPu5kX1mH_b-22" style="edgeStyle=orthogonalEdgeStyle;rounded=0;orthogonalLoop=1;jettySize=auto;html=1;exitX=0.5;exitY=1;exitDx=0;exitDy=0;movable=0;resizable=0;rotatable=0;deletable=0;editable=0;locked=1;connectable=0;" edge="1" parent="WIyWlLk6GJQsqaUBKTNV-1" source="JpFROwRJeTPu5kX1mH_b-20" target="JpFROwRJeTPu5kX1mH_b-20">
          <mxGeometry relative="1" as="geometry" />
        </mxCell>
        <mxCell id="JpFROwRJeTPu5kX1mH_b-30" style="edgeStyle=orthogonalEdgeStyle;rounded=0;orthogonalLoop=1;jettySize=auto;html=1;exitX=0.5;exitY=1;exitDx=0;exitDy=0;movable=0;resizable=0;rotatable=0;deletable=0;editable=0;locked=1;connectable=0;" edge="1" parent="WIyWlLk6GJQsqaUBKTNV-1" source="JpFROwRJeTPu5kX1mH_b-18" target="JpFROwRJeTPu5kX1mH_b-18">
          <mxGeometry relative="1" as="geometry" />
        </mxCell>
        <mxCell id="JpFROwRJeTPu5kX1mH_b-244" style="edgeStyle=orthogonalEdgeStyle;rounded=0;orthogonalLoop=1;jettySize=auto;html=1;exitX=0.5;exitY=1;exitDx=0;exitDy=0;entryX=0.5;entryY=0;entryDx=0;entryDy=0;movable=0;resizable=0;rotatable=0;deletable=0;editable=0;locked=1;connectable=0;" edge="1" parent="WIyWlLk6GJQsqaUBKTNV-1" source="JpFROwRJeTPu5kX1mH_b-44" target="JpFROwRJeTPu5kX1mH_b-241">
          <mxGeometry relative="1" as="geometry" />
        </mxCell>
        <mxCell id="JpFROwRJeTPu5kX1mH_b-44" value="save and quit" style="rounded=1;whiteSpace=wrap;html=1;shadow=1;movable=0;resizable=0;rotatable=0;deletable=0;editable=0;locked=1;connectable=0;" vertex="1" parent="WIyWlLk6GJQsqaUBKTNV-1">
          <mxGeometry x="600" y="-900" width="80" height="30" as="geometry" />
        </mxCell>
        <mxCell id="JpFROwRJeTPu5kX1mH_b-188" style="edgeStyle=orthogonalEdgeStyle;rounded=0;orthogonalLoop=1;jettySize=auto;html=1;exitX=0.5;exitY=1;exitDx=0;exitDy=0;entryX=0.5;entryY=0;entryDx=0;entryDy=0;movable=0;resizable=0;rotatable=0;deletable=0;editable=0;locked=1;connectable=0;" edge="1" parent="WIyWlLk6GJQsqaUBKTNV-1" source="JpFROwRJeTPu5kX1mH_b-47" target="JpFROwRJeTPu5kX1mH_b-103">
          <mxGeometry relative="1" as="geometry" />
        </mxCell>
        <mxCell id="JpFROwRJeTPu5kX1mH_b-47" value="&amp;nbsp;Display list and info" style="rounded=1;whiteSpace=wrap;html=1;shadow=1;movable=0;resizable=0;rotatable=0;deletable=0;editable=0;locked=1;connectable=0;" vertex="1" parent="WIyWlLk6GJQsqaUBKTNV-1">
          <mxGeometry x="1124" y="-830" width="86" height="40" as="geometry" />
        </mxCell>
        <mxCell id="JpFROwRJeTPu5kX1mH_b-122" style="edgeStyle=orthogonalEdgeStyle;rounded=0;orthogonalLoop=1;jettySize=auto;html=1;exitX=0.5;exitY=1;exitDx=0;exitDy=0;entryX=0.5;entryY=0;entryDx=0;entryDy=0;movable=0;resizable=0;rotatable=0;deletable=0;editable=0;locked=1;connectable=0;" edge="1" parent="WIyWlLk6GJQsqaUBKTNV-1" source="JpFROwRJeTPu5kX1mH_b-48" target="JpFROwRJeTPu5kX1mH_b-100">
          <mxGeometry relative="1" as="geometry" />
        </mxCell>
        <mxCell id="JpFROwRJeTPu5kX1mH_b-48" value="calculate average grade" style="rounded=1;whiteSpace=wrap;html=1;shadow=1;movable=0;resizable=0;rotatable=0;deletable=0;editable=0;locked=1;connectable=0;" vertex="1" parent="WIyWlLk6GJQsqaUBKTNV-1">
          <mxGeometry x="1530" y="-900" width="80" height="30" as="geometry" />
        </mxCell>
        <mxCell id="JpFROwRJeTPu5kX1mH_b-49" style="edgeStyle=orthogonalEdgeStyle;rounded=0;orthogonalLoop=1;jettySize=auto;html=1;exitX=0.5;exitY=1;exitDx=0;exitDy=0;movable=0;resizable=0;rotatable=0;deletable=0;editable=0;locked=1;connectable=0;" edge="1" parent="WIyWlLk6GJQsqaUBKTNV-1" source="JpFROwRJeTPu5kX1mH_b-5" target="JpFROwRJeTPu5kX1mH_b-5">
          <mxGeometry relative="1" as="geometry" />
        </mxCell>
        <mxCell id="JpFROwRJeTPu5kX1mH_b-54" value="" style="endArrow=classic;html=1;rounded=0;exitX=0.467;exitY=1;exitDx=0;exitDy=0;exitPerimeter=0;movable=0;resizable=0;rotatable=0;deletable=0;editable=0;locked=1;connectable=0;" edge="1" parent="WIyWlLk6GJQsqaUBKTNV-1" source="WIyWlLk6GJQsqaUBKTNV-3">
          <mxGeometry width="50" height="50" relative="1" as="geometry">
            <mxPoint x="1070" y="-890" as="sourcePoint" />
            <mxPoint x="1060" y="-900" as="targetPoint" />
          </mxGeometry>
        </mxCell>
        <mxCell id="JpFROwRJeTPu5kX1mH_b-55" style="edgeStyle=orthogonalEdgeStyle;rounded=0;orthogonalLoop=1;jettySize=auto;html=1;exitX=0.5;exitY=1;exitDx=0;exitDy=0;movable=0;resizable=0;rotatable=0;deletable=0;editable=0;locked=1;connectable=0;" edge="1" parent="WIyWlLk6GJQsqaUBKTNV-1" source="JpFROwRJeTPu5kX1mH_b-48" target="JpFROwRJeTPu5kX1mH_b-48">
          <mxGeometry relative="1" as="geometry" />
        </mxCell>
        <mxCell id="JpFROwRJeTPu5kX1mH_b-56" style="edgeStyle=orthogonalEdgeStyle;rounded=0;orthogonalLoop=1;jettySize=auto;html=1;exitX=0.5;exitY=1;exitDx=0;exitDy=0;movable=0;resizable=0;rotatable=0;deletable=0;editable=0;locked=1;connectable=0;" edge="1" parent="WIyWlLk6GJQsqaUBKTNV-1" source="JpFROwRJeTPu5kX1mH_b-18" target="JpFROwRJeTPu5kX1mH_b-18">
          <mxGeometry relative="1" as="geometry" />
        </mxCell>
        <mxCell id="JpFROwRJeTPu5kX1mH_b-61" style="edgeStyle=orthogonalEdgeStyle;rounded=0;orthogonalLoop=1;jettySize=auto;html=1;exitX=0.5;exitY=1;exitDx=0;exitDy=0;movable=0;resizable=0;rotatable=0;deletable=0;editable=0;locked=1;connectable=0;" edge="1" parent="WIyWlLk6GJQsqaUBKTNV-1" source="JpFROwRJeTPu5kX1mH_b-17" target="JpFROwRJeTPu5kX1mH_b-17">
          <mxGeometry relative="1" as="geometry" />
        </mxCell>
        <mxCell id="JpFROwRJeTPu5kX1mH_b-62" style="edgeStyle=orthogonalEdgeStyle;rounded=0;orthogonalLoop=1;jettySize=auto;html=1;exitX=0.5;exitY=1;exitDx=0;exitDy=0;movable=0;resizable=0;rotatable=0;deletable=0;editable=0;locked=1;connectable=0;" edge="1" parent="WIyWlLk6GJQsqaUBKTNV-1" source="JpFROwRJeTPu5kX1mH_b-48" target="JpFROwRJeTPu5kX1mH_b-48">
          <mxGeometry relative="1" as="geometry" />
        </mxCell>
        <mxCell id="JpFROwRJeTPu5kX1mH_b-63" value="START" style="ellipse;whiteSpace=wrap;html=1;movable=0;resizable=0;rotatable=0;deletable=0;editable=0;locked=1;connectable=0;" vertex="1" parent="WIyWlLk6GJQsqaUBKTNV-1">
          <mxGeometry x="1004" y="-1100" width="120" height="40" as="geometry" />
        </mxCell>
        <mxCell id="JpFROwRJeTPu5kX1mH_b-65" style="edgeStyle=orthogonalEdgeStyle;rounded=0;orthogonalLoop=1;jettySize=auto;html=1;exitX=0.5;exitY=1;exitDx=0;exitDy=0;movable=0;resizable=0;rotatable=0;deletable=0;editable=0;locked=1;connectable=0;" edge="1" parent="WIyWlLk6GJQsqaUBKTNV-1" source="JpFROwRJeTPu5kX1mH_b-63" target="JpFROwRJeTPu5kX1mH_b-63">
          <mxGeometry relative="1" as="geometry" />
        </mxCell>
        <mxCell id="JpFROwRJeTPu5kX1mH_b-66" style="edgeStyle=orthogonalEdgeStyle;rounded=0;orthogonalLoop=1;jettySize=auto;html=1;exitX=0.5;exitY=1;exitDx=0;exitDy=0;movable=0;resizable=0;rotatable=0;deletable=0;editable=0;locked=1;connectable=0;" edge="1" parent="WIyWlLk6GJQsqaUBKTNV-1" source="JpFROwRJeTPu5kX1mH_b-63" target="JpFROwRJeTPu5kX1mH_b-63">
          <mxGeometry relative="1" as="geometry" />
        </mxCell>
        <mxCell id="JpFROwRJeTPu5kX1mH_b-67" style="edgeStyle=orthogonalEdgeStyle;rounded=0;orthogonalLoop=1;jettySize=auto;html=1;exitX=0.5;exitY=1;exitDx=0;exitDy=0;movable=0;resizable=0;rotatable=0;deletable=0;editable=0;locked=1;connectable=0;" edge="1" parent="WIyWlLk6GJQsqaUBKTNV-1" source="JpFROwRJeTPu5kX1mH_b-63" target="JpFROwRJeTPu5kX1mH_b-63">
          <mxGeometry relative="1" as="geometry" />
        </mxCell>
        <mxCell id="JpFROwRJeTPu5kX1mH_b-69" value="" style="endArrow=classic;html=1;rounded=0;movable=0;resizable=0;rotatable=0;deletable=0;editable=0;locked=1;connectable=0;" edge="1" parent="WIyWlLk6GJQsqaUBKTNV-1">
          <mxGeometry width="50" height="50" relative="1" as="geometry">
            <mxPoint x="1064" y="-1060" as="sourcePoint" />
            <mxPoint x="1064" y="-1010" as="targetPoint" />
          </mxGeometry>
        </mxCell>
        <mxCell id="JpFROwRJeTPu5kX1mH_b-70" value="" style="endArrow=classic;html=1;rounded=0;movable=0;resizable=0;rotatable=0;deletable=0;editable=0;locked=1;connectable=0;" edge="1" parent="WIyWlLk6GJQsqaUBKTNV-1">
          <mxGeometry width="50" height="50" relative="1" as="geometry">
            <mxPoint x="1060" y="-970" as="sourcePoint" />
            <mxPoint x="964" y="-900" as="targetPoint" />
            <Array as="points">
              <mxPoint x="1060" y="-940" />
              <mxPoint x="1020" y="-940" />
              <mxPoint x="964" y="-940" />
            </Array>
          </mxGeometry>
        </mxCell>
        <mxCell id="JpFROwRJeTPu5kX1mH_b-71" value="" style="endArrow=classic;html=1;rounded=0;entryX=0.45;entryY=0;entryDx=0;entryDy=0;entryPerimeter=0;movable=0;resizable=0;rotatable=0;deletable=0;editable=0;locked=1;connectable=0;" edge="1" parent="WIyWlLk6GJQsqaUBKTNV-1" target="JpFROwRJeTPu5kX1mH_b-47">
          <mxGeometry width="50" height="50" relative="1" as="geometry">
            <mxPoint x="1060" y="-970" as="sourcePoint" />
            <mxPoint x="1160" y="-900" as="targetPoint" />
            <Array as="points">
              <mxPoint x="1060" y="-940" />
              <mxPoint x="1100" y="-940" />
              <mxPoint x="1160" y="-940" />
              <mxPoint x="1160" y="-920" />
            </Array>
          </mxGeometry>
        </mxCell>
        <mxCell id="JpFROwRJeTPu5kX1mH_b-72" value="" style="endArrow=classic;html=1;rounded=0;entryX=0.5;entryY=0;entryDx=0;entryDy=0;entryPerimeter=0;movable=0;resizable=0;rotatable=0;deletable=0;editable=0;locked=1;connectable=0;" edge="1" parent="WIyWlLk6GJQsqaUBKTNV-1" target="JpFROwRJeTPu5kX1mH_b-17">
          <mxGeometry width="50" height="50" relative="1" as="geometry">
            <mxPoint x="1060" y="-970" as="sourcePoint" />
            <mxPoint x="1110" y="-990" as="targetPoint" />
            <Array as="points">
              <mxPoint x="1060" y="-940" />
              <mxPoint x="940" y="-940" />
              <mxPoint x="860" y="-940" />
            </Array>
          </mxGeometry>
        </mxCell>
        <mxCell id="JpFROwRJeTPu5kX1mH_b-73" value="" style="endArrow=classic;html=1;rounded=0;entryX=0.5;entryY=0;entryDx=0;entryDy=0;entryPerimeter=0;movable=0;resizable=0;rotatable=0;deletable=0;editable=0;locked=1;connectable=0;" edge="1" parent="WIyWlLk6GJQsqaUBKTNV-1" target="JpFROwRJeTPu5kX1mH_b-20">
          <mxGeometry width="50" height="50" relative="1" as="geometry">
            <mxPoint x="1060" y="-970" as="sourcePoint" />
            <mxPoint x="1340" y="-1000" as="targetPoint" />
            <Array as="points">
              <mxPoint x="1060" y="-940" />
              <mxPoint x="1210" y="-940" />
              <mxPoint x="1270" y="-940" />
            </Array>
          </mxGeometry>
        </mxCell>
        <mxCell id="JpFROwRJeTPu5kX1mH_b-74" value="" style="endArrow=classic;html=1;rounded=0;entryX=0.5;entryY=0;entryDx=0;entryDy=0;entryPerimeter=0;movable=0;resizable=0;rotatable=0;deletable=0;editable=0;locked=1;connectable=0;" edge="1" parent="WIyWlLk6GJQsqaUBKTNV-1" target="JpFROwRJeTPu5kX1mH_b-48">
          <mxGeometry width="50" height="50" relative="1" as="geometry">
            <mxPoint x="1060" y="-970" as="sourcePoint" />
            <mxPoint x="1220" y="-1030" as="targetPoint" />
            <Array as="points">
              <mxPoint x="1060" y="-940" />
              <mxPoint x="1270" y="-940" />
              <mxPoint x="1570" y="-940" />
            </Array>
          </mxGeometry>
        </mxCell>
        <mxCell id="JpFROwRJeTPu5kX1mH_b-75" value="" style="endArrow=classic;html=1;rounded=0;entryX=0.5;entryY=0;entryDx=0;entryDy=0;entryPerimeter=0;movable=0;resizable=0;rotatable=0;deletable=0;editable=0;locked=1;connectable=0;" edge="1" parent="WIyWlLk6GJQsqaUBKTNV-1" target="JpFROwRJeTPu5kX1mH_b-44">
          <mxGeometry width="50" height="50" relative="1" as="geometry">
            <mxPoint x="1060" y="-970" as="sourcePoint" />
            <mxPoint x="1220" y="-1030" as="targetPoint" />
            <Array as="points">
              <mxPoint x="1060" y="-940" />
              <mxPoint x="860" y="-940" />
              <mxPoint x="640" y="-940" />
            </Array>
          </mxGeometry>
        </mxCell>
        <mxCell id="JpFROwRJeTPu5kX1mH_b-76" value="" style="endArrow=classic;html=1;rounded=0;movable=0;resizable=0;rotatable=0;deletable=0;editable=0;locked=1;connectable=0;" edge="1" parent="WIyWlLk6GJQsqaUBKTNV-1">
          <mxGeometry width="50" height="50" relative="1" as="geometry">
            <mxPoint x="1470" y="-940" as="sourcePoint" />
            <mxPoint x="1470" y="-900" as="targetPoint" />
          </mxGeometry>
        </mxCell>
        <mxCell id="JpFROwRJeTPu5kX1mH_b-77" value="" style="endArrow=classic;html=1;rounded=0;entryX=0.5;entryY=0;entryDx=0;entryDy=0;entryPerimeter=0;movable=0;resizable=0;rotatable=0;deletable=0;editable=0;locked=1;connectable=0;" edge="1" parent="WIyWlLk6GJQsqaUBKTNV-1" target="JpFROwRJeTPu5kX1mH_b-21">
          <mxGeometry width="50" height="50" relative="1" as="geometry">
            <mxPoint x="1370" y="-940" as="sourcePoint" />
            <mxPoint x="1220" y="-1030" as="targetPoint" />
          </mxGeometry>
        </mxCell>
        <mxCell id="JpFROwRJeTPu5kX1mH_b-78" value="" style="endArrow=classic;html=1;rounded=0;entryX=0.5;entryY=0;entryDx=0;entryDy=0;entryPerimeter=0;movable=0;resizable=0;rotatable=0;deletable=0;editable=0;locked=1;connectable=0;" edge="1" parent="WIyWlLk6GJQsqaUBKTNV-1" target="JpFROwRJeTPu5kX1mH_b-18">
          <mxGeometry width="50" height="50" relative="1" as="geometry">
            <mxPoint x="750" y="-940" as="sourcePoint" />
            <mxPoint x="1220" y="-1030" as="targetPoint" />
          </mxGeometry>
        </mxCell>
        <mxCell id="JpFROwRJeTPu5kX1mH_b-234" style="edgeStyle=orthogonalEdgeStyle;rounded=0;orthogonalLoop=1;jettySize=auto;html=1;exitX=0.5;exitY=1;exitDx=0;exitDy=0;movable=0;resizable=0;rotatable=0;deletable=0;editable=0;locked=1;connectable=0;" edge="1" parent="WIyWlLk6GJQsqaUBKTNV-1" source="JpFROwRJeTPu5kX1mH_b-79">
          <mxGeometry relative="1" as="geometry">
            <mxPoint x="1063.947368421053" y="-600" as="targetPoint" />
            <Array as="points">
              <mxPoint x="1060" y="-820" />
              <mxPoint x="1060" y="-600" />
            </Array>
          </mxGeometry>
        </mxCell>
        <mxCell id="JpFROwRJeTPu5kX1mH_b-79" value="&lt;font style=&quot;font-size: 9px;&quot;&gt;Name, ID, Email&lt;/font&gt;" style="shape=parallelogram;perimeter=parallelogramPerimeter;whiteSpace=wrap;html=1;fixedSize=1;shadow=1;movable=0;resizable=0;rotatable=0;deletable=0;editable=0;locked=1;connectable=0;" vertex="1" parent="WIyWlLk6GJQsqaUBKTNV-1">
          <mxGeometry x="1014" y="-845" width="100" height="25" as="geometry" />
        </mxCell>
        <mxCell id="JpFROwRJeTPu5kX1mH_b-82" style="edgeStyle=orthogonalEdgeStyle;rounded=0;orthogonalLoop=1;jettySize=auto;html=1;exitX=0.5;exitY=1;exitDx=0;exitDy=0;movable=0;resizable=0;rotatable=0;deletable=0;editable=0;locked=1;connectable=0;" edge="1" parent="WIyWlLk6GJQsqaUBKTNV-1" source="JpFROwRJeTPu5kX1mH_b-79" target="JpFROwRJeTPu5kX1mH_b-79">
          <mxGeometry relative="1" as="geometry" />
        </mxCell>
        <mxCell id="JpFROwRJeTPu5kX1mH_b-87" style="edgeStyle=orthogonalEdgeStyle;rounded=0;orthogonalLoop=1;jettySize=auto;html=1;exitX=0.5;exitY=1;exitDx=0;exitDy=0;movable=0;resizable=0;rotatable=0;deletable=0;editable=0;locked=1;connectable=0;" edge="1" parent="WIyWlLk6GJQsqaUBKTNV-1" source="JpFROwRJeTPu5kX1mH_b-79" target="JpFROwRJeTPu5kX1mH_b-79">
          <mxGeometry relative="1" as="geometry" />
        </mxCell>
        <mxCell id="JpFROwRJeTPu5kX1mH_b-89" value="" style="endArrow=classic;html=1;rounded=0;entryX=0.46;entryY=0.2;entryDx=0;entryDy=0;entryPerimeter=0;movable=0;resizable=0;rotatable=0;deletable=0;editable=0;locked=1;connectable=0;" edge="1" parent="WIyWlLk6GJQsqaUBKTNV-1" target="JpFROwRJeTPu5kX1mH_b-79">
          <mxGeometry width="50" height="50" relative="1" as="geometry">
            <mxPoint x="1060" y="-870" as="sourcePoint" />
            <mxPoint x="1200" y="-880" as="targetPoint" />
          </mxGeometry>
        </mxCell>
        <mxCell id="JpFROwRJeTPu5kX1mH_b-154" style="edgeStyle=orthogonalEdgeStyle;rounded=0;orthogonalLoop=1;jettySize=auto;html=1;exitX=0.5;exitY=1;exitDx=0;exitDy=0;entryX=0.5;entryY=0;entryDx=0;entryDy=0;movable=0;resizable=0;rotatable=0;deletable=0;editable=0;locked=1;connectable=0;" edge="1" parent="WIyWlLk6GJQsqaUBKTNV-1" source="JpFROwRJeTPu5kX1mH_b-98" target="JpFROwRJeTPu5kX1mH_b-145">
          <mxGeometry relative="1" as="geometry" />
        </mxCell>
        <mxCell id="JpFROwRJeTPu5kX1mH_b-98" value="&lt;font style=&quot;font-size: 6px;&quot;&gt;Show the list of student to choose from&lt;/font&gt;" style="rounded=1;whiteSpace=wrap;html=1;shadow=1;movable=0;resizable=0;rotatable=0;deletable=0;editable=0;locked=1;connectable=0;" vertex="1" parent="WIyWlLk6GJQsqaUBKTNV-1">
          <mxGeometry x="1437.5" y="-846.25" width="65" height="27.5" as="geometry" />
        </mxCell>
        <mxCell id="JpFROwRJeTPu5kX1mH_b-142" style="edgeStyle=orthogonalEdgeStyle;rounded=0;orthogonalLoop=1;jettySize=auto;html=1;exitX=0.5;exitY=1;exitDx=0;exitDy=0;entryX=0.5;entryY=0;entryDx=0;entryDy=0;movable=0;resizable=0;rotatable=0;deletable=0;editable=0;locked=1;connectable=0;" edge="1" parent="WIyWlLk6GJQsqaUBKTNV-1" source="JpFROwRJeTPu5kX1mH_b-100" target="JpFROwRJeTPu5kX1mH_b-141">
          <mxGeometry relative="1" as="geometry" />
        </mxCell>
        <mxCell id="JpFROwRJeTPu5kX1mH_b-100" value="&lt;font style=&quot;font-size: 6px;&quot;&gt;Show the list of student to choose from&lt;/font&gt;" style="rounded=1;whiteSpace=wrap;html=1;shadow=1;movable=0;resizable=0;rotatable=0;deletable=0;editable=0;locked=1;connectable=0;" vertex="1" parent="WIyWlLk6GJQsqaUBKTNV-1">
          <mxGeometry x="1537.5" y="-846.25" width="65" height="27.5" as="geometry" />
        </mxCell>
        <mxCell id="JpFROwRJeTPu5kX1mH_b-152" style="edgeStyle=orthogonalEdgeStyle;rounded=0;orthogonalLoop=1;jettySize=auto;html=1;exitX=0.5;exitY=1;exitDx=0;exitDy=0;entryX=0.5;entryY=0;entryDx=0;entryDy=0;movable=0;resizable=0;rotatable=0;deletable=0;editable=0;locked=1;connectable=0;" edge="1" parent="WIyWlLk6GJQsqaUBKTNV-1" source="JpFROwRJeTPu5kX1mH_b-101" target="JpFROwRJeTPu5kX1mH_b-146">
          <mxGeometry relative="1" as="geometry" />
        </mxCell>
        <mxCell id="JpFROwRJeTPu5kX1mH_b-101" value="&lt;font style=&quot;font-size: 6px;&quot;&gt;Show the list of student to choose from&lt;/font&gt;" style="rounded=1;whiteSpace=wrap;html=1;shadow=1;movable=0;resizable=0;rotatable=0;deletable=0;editable=0;locked=1;connectable=0;" vertex="1" parent="WIyWlLk6GJQsqaUBKTNV-1">
          <mxGeometry x="1337.5" y="-846.25" width="65" height="27.5" as="geometry" />
        </mxCell>
        <mxCell id="JpFROwRJeTPu5kX1mH_b-153" style="edgeStyle=orthogonalEdgeStyle;rounded=0;orthogonalLoop=1;jettySize=auto;html=1;exitX=0.5;exitY=1;exitDx=0;exitDy=0;entryX=0.5;entryY=0;entryDx=0;entryDy=0;movable=0;resizable=0;rotatable=0;deletable=0;editable=0;locked=1;connectable=0;" edge="1" parent="WIyWlLk6GJQsqaUBKTNV-1" source="JpFROwRJeTPu5kX1mH_b-102" target="JpFROwRJeTPu5kX1mH_b-147">
          <mxGeometry relative="1" as="geometry" />
        </mxCell>
        <mxCell id="JpFROwRJeTPu5kX1mH_b-102" value="&lt;font style=&quot;font-size: 6px;&quot;&gt;Show the list of student to choose from&lt;/font&gt;" style="rounded=1;whiteSpace=wrap;html=1;shadow=1;movable=0;resizable=0;rotatable=0;deletable=0;editable=0;locked=1;connectable=0;" vertex="1" parent="WIyWlLk6GJQsqaUBKTNV-1">
          <mxGeometry x="1237.5" y="-846.25" width="65" height="27.5" as="geometry" />
        </mxCell>
        <mxCell id="JpFROwRJeTPu5kX1mH_b-184" style="edgeStyle=orthogonalEdgeStyle;rounded=0;orthogonalLoop=1;jettySize=auto;html=1;exitX=0.5;exitY=1;exitDx=0;exitDy=0;entryX=0.5;entryY=0;entryDx=0;entryDy=0;movable=0;resizable=0;rotatable=0;deletable=0;editable=0;locked=1;connectable=0;" edge="1" parent="WIyWlLk6GJQsqaUBKTNV-1" source="JpFROwRJeTPu5kX1mH_b-103" target="JpFROwRJeTPu5kX1mH_b-183">
          <mxGeometry relative="1" as="geometry" />
        </mxCell>
        <mxCell id="JpFROwRJeTPu5kX1mH_b-103" value="&lt;font style=&quot;font-size: 6px;&quot;&gt;Output the list of student to choose from&lt;/font&gt;" style="rounded=1;whiteSpace=wrap;html=1;shadow=1;movable=0;resizable=0;rotatable=0;deletable=0;editable=0;locked=1;connectable=0;" vertex="1" parent="WIyWlLk6GJQsqaUBKTNV-1">
          <mxGeometry x="1134.5" y="-760" width="65" height="27.5" as="geometry" />
        </mxCell>
        <mxCell id="JpFROwRJeTPu5kX1mH_b-104" style="edgeStyle=orthogonalEdgeStyle;rounded=0;orthogonalLoop=1;jettySize=auto;html=1;exitX=0.5;exitY=1;exitDx=0;exitDy=0;movable=0;resizable=0;rotatable=0;deletable=0;editable=0;locked=1;connectable=0;" edge="1" parent="WIyWlLk6GJQsqaUBKTNV-1" source="JpFROwRJeTPu5kX1mH_b-102" target="JpFROwRJeTPu5kX1mH_b-102">
          <mxGeometry relative="1" as="geometry" />
        </mxCell>
        <mxCell id="JpFROwRJeTPu5kX1mH_b-106" value="&lt;font style=&quot;font-size: 6px;&quot;&gt;add info to list&amp;nbsp;&lt;/font&gt;" style="endArrow=classic;html=1;rounded=0;entryX=0.075;entryY=0.667;entryDx=0;entryDy=0;entryPerimeter=0;movable=0;resizable=0;rotatable=0;deletable=0;editable=0;locked=1;connectable=0;" edge="1" parent="WIyWlLk6GJQsqaUBKTNV-1">
          <mxGeometry x="0.0811" width="50" height="50" relative="1" as="geometry">
            <mxPoint x="1060" y="-818.75" as="sourcePoint" />
            <mxPoint x="1123.9999999999998" y="-808.74" as="targetPoint" />
            <Array as="points">
              <mxPoint x="1060" y="-808.75" />
            </Array>
            <mxPoint as="offset" />
          </mxGeometry>
        </mxCell>
        <mxCell id="JpFROwRJeTPu5kX1mH_b-112" style="edgeStyle=orthogonalEdgeStyle;rounded=0;orthogonalLoop=1;jettySize=auto;html=1;exitX=0.5;exitY=1;exitDx=0;exitDy=0;movable=0;resizable=0;rotatable=0;deletable=0;editable=0;locked=1;connectable=0;" edge="1" parent="WIyWlLk6GJQsqaUBKTNV-1" source="JpFROwRJeTPu5kX1mH_b-101" target="JpFROwRJeTPu5kX1mH_b-101">
          <mxGeometry relative="1" as="geometry" />
        </mxCell>
        <mxCell id="JpFROwRJeTPu5kX1mH_b-119" style="edgeStyle=orthogonalEdgeStyle;rounded=0;orthogonalLoop=1;jettySize=auto;html=1;exitX=0.5;exitY=1;exitDx=0;exitDy=0;movable=0;resizable=0;rotatable=0;deletable=0;editable=0;locked=1;connectable=0;" edge="1" parent="WIyWlLk6GJQsqaUBKTNV-1" source="JpFROwRJeTPu5kX1mH_b-20" target="JpFROwRJeTPu5kX1mH_b-20">
          <mxGeometry relative="1" as="geometry" />
        </mxCell>
        <mxCell id="JpFROwRJeTPu5kX1mH_b-158" value="" style="edgeStyle=orthogonalEdgeStyle;rounded=0;orthogonalLoop=1;jettySize=auto;html=1;movable=0;resizable=0;rotatable=0;deletable=0;editable=0;locked=1;connectable=0;" edge="1" parent="WIyWlLk6GJQsqaUBKTNV-1" source="JpFROwRJeTPu5kX1mH_b-124" target="JpFROwRJeTPu5kX1mH_b-157">
          <mxGeometry relative="1" as="geometry">
            <Array as="points">
              <mxPoint x="964" y="-810" />
              <mxPoint x="965" y="-810" />
            </Array>
          </mxGeometry>
        </mxCell>
        <mxCell id="JpFROwRJeTPu5kX1mH_b-124" value="&lt;font style=&quot;font-size: 6px;&quot;&gt;Show the list of student to choose from&lt;/font&gt;" style="rounded=1;whiteSpace=wrap;html=1;shadow=1;movable=0;resizable=0;rotatable=0;deletable=0;editable=0;locked=1;connectable=0;" vertex="1" parent="WIyWlLk6GJQsqaUBKTNV-1">
          <mxGeometry x="931.5" y="-847.5" width="65" height="27.5" as="geometry" />
        </mxCell>
        <mxCell id="JpFROwRJeTPu5kX1mH_b-125" style="edgeStyle=orthogonalEdgeStyle;rounded=0;orthogonalLoop=1;jettySize=auto;html=1;exitX=0.5;exitY=1;exitDx=0;exitDy=0;movable=0;resizable=0;rotatable=0;deletable=0;editable=0;locked=1;connectable=0;" edge="1" parent="WIyWlLk6GJQsqaUBKTNV-1" source="JpFROwRJeTPu5kX1mH_b-16" target="JpFROwRJeTPu5kX1mH_b-16">
          <mxGeometry relative="1" as="geometry" />
        </mxCell>
        <mxCell id="JpFROwRJeTPu5kX1mH_b-128" style="edgeStyle=orthogonalEdgeStyle;rounded=0;orthogonalLoop=1;jettySize=auto;html=1;exitX=0.5;exitY=1;exitDx=0;exitDy=0;movable=0;resizable=0;rotatable=0;deletable=0;editable=0;locked=1;connectable=0;" edge="1" parent="WIyWlLk6GJQsqaUBKTNV-1" source="JpFROwRJeTPu5kX1mH_b-18" target="JpFROwRJeTPu5kX1mH_b-18">
          <mxGeometry relative="1" as="geometry" />
        </mxCell>
        <mxCell id="JpFROwRJeTPu5kX1mH_b-130" style="edgeStyle=orthogonalEdgeStyle;rounded=0;orthogonalLoop=1;jettySize=auto;html=1;exitX=0.5;exitY=1;exitDx=0;exitDy=0;movable=0;resizable=0;rotatable=0;deletable=0;editable=0;locked=1;connectable=0;" edge="1" parent="WIyWlLk6GJQsqaUBKTNV-1" source="JpFROwRJeTPu5kX1mH_b-103" target="JpFROwRJeTPu5kX1mH_b-103">
          <mxGeometry relative="1" as="geometry" />
        </mxCell>
        <mxCell id="JpFROwRJeTPu5kX1mH_b-135" style="edgeStyle=orthogonalEdgeStyle;rounded=0;orthogonalLoop=1;jettySize=auto;html=1;exitX=0;exitY=0.5;exitDx=0;exitDy=0;entryX=0.75;entryY=0;entryDx=0;entryDy=0;movable=0;resizable=0;rotatable=0;deletable=0;editable=0;locked=1;connectable=0;" edge="1" parent="WIyWlLk6GJQsqaUBKTNV-1" source="JpFROwRJeTPu5kX1mH_b-133" target="JpFROwRJeTPu5kX1mH_b-18">
          <mxGeometry relative="1" as="geometry">
            <Array as="points">
              <mxPoint x="810" y="-834" />
              <mxPoint x="810" y="-920" />
              <mxPoint x="770" y="-920" />
            </Array>
          </mxGeometry>
        </mxCell>
        <mxCell id="JpFROwRJeTPu5kX1mH_b-231" style="edgeStyle=orthogonalEdgeStyle;rounded=0;orthogonalLoop=1;jettySize=auto;html=1;exitX=0.25;exitY=1;exitDx=0;exitDy=0;movable=0;resizable=0;rotatable=0;deletable=0;editable=0;locked=1;connectable=0;" edge="1" parent="WIyWlLk6GJQsqaUBKTNV-1" source="JpFROwRJeTPu5kX1mH_b-133">
          <mxGeometry relative="1" as="geometry">
            <mxPoint x="839.7368421052633" y="-600" as="targetPoint" />
          </mxGeometry>
        </mxCell>
        <mxCell id="JpFROwRJeTPu5kX1mH_b-133" value="&lt;font style=&quot;font-size: 8px;&quot;&gt;Calls the WriteToFile function&lt;/font&gt;" style="whiteSpace=wrap;html=1;rounded=1;shadow=1;movable=0;resizable=0;rotatable=0;deletable=0;editable=0;locked=1;connectable=0;" vertex="1" parent="WIyWlLk6GJQsqaUBKTNV-1">
          <mxGeometry x="820" y="-847.5" width="80" height="27.5" as="geometry" />
        </mxCell>
        <mxCell id="JpFROwRJeTPu5kX1mH_b-137" style="edgeStyle=orthogonalEdgeStyle;rounded=0;orthogonalLoop=1;jettySize=auto;html=1;exitX=0.5;exitY=1;exitDx=0;exitDy=0;shadow=1;movable=0;resizable=0;rotatable=0;deletable=0;editable=0;locked=1;connectable=0;" edge="1" parent="WIyWlLk6GJQsqaUBKTNV-1" source="JpFROwRJeTPu5kX1mH_b-100" target="JpFROwRJeTPu5kX1mH_b-100">
          <mxGeometry relative="1" as="geometry" />
        </mxCell>
        <mxCell id="JpFROwRJeTPu5kX1mH_b-179" style="edgeStyle=orthogonalEdgeStyle;rounded=0;orthogonalLoop=1;jettySize=auto;html=1;exitX=0.5;exitY=1;exitDx=0;exitDy=0;entryX=0.5;entryY=0;entryDx=0;entryDy=0;movable=0;resizable=0;rotatable=0;deletable=0;editable=0;locked=1;connectable=0;" edge="1" parent="WIyWlLk6GJQsqaUBKTNV-1" source="JpFROwRJeTPu5kX1mH_b-141" target="JpFROwRJeTPu5kX1mH_b-171">
          <mxGeometry relative="1" as="geometry" />
        </mxCell>
        <mxCell id="JpFROwRJeTPu5kX1mH_b-141" value="&lt;font style=&quot;font-size: 6px;&quot;&gt;Input student index&lt;/font&gt;" style="shape=parallelogram;perimeter=parallelogramPerimeter;whiteSpace=wrap;html=1;fixedSize=1;shadow=1;movable=0;resizable=0;rotatable=0;deletable=0;editable=0;locked=1;connectable=0;" vertex="1" parent="WIyWlLk6GJQsqaUBKTNV-1">
          <mxGeometry x="1535" y="-800" width="65" height="20" as="geometry" />
        </mxCell>
        <mxCell id="JpFROwRJeTPu5kX1mH_b-174" style="edgeStyle=orthogonalEdgeStyle;rounded=0;orthogonalLoop=1;jettySize=auto;html=1;exitX=0.5;exitY=1;exitDx=0;exitDy=0;entryX=0.5;entryY=0;entryDx=0;entryDy=0;movable=0;resizable=0;rotatable=0;deletable=0;editable=0;locked=1;connectable=0;" edge="1" parent="WIyWlLk6GJQsqaUBKTNV-1" source="JpFROwRJeTPu5kX1mH_b-145" target="JpFROwRJeTPu5kX1mH_b-170">
          <mxGeometry relative="1" as="geometry" />
        </mxCell>
        <mxCell id="JpFROwRJeTPu5kX1mH_b-145" value="&lt;font style=&quot;font-size: 6px;&quot;&gt;Input student index&lt;/font&gt;" style="shape=parallelogram;perimeter=parallelogramPerimeter;whiteSpace=wrap;html=1;fixedSize=1;shadow=1;movable=0;resizable=0;rotatable=0;deletable=0;editable=0;locked=1;connectable=0;" vertex="1" parent="WIyWlLk6GJQsqaUBKTNV-1">
          <mxGeometry x="1437.5" y="-800" width="65" height="20" as="geometry" />
        </mxCell>
        <mxCell id="JpFROwRJeTPu5kX1mH_b-167" style="edgeStyle=orthogonalEdgeStyle;rounded=0;orthogonalLoop=1;jettySize=auto;html=1;exitX=0.5;exitY=1;exitDx=0;exitDy=0;entryX=0.542;entryY=0.111;entryDx=0;entryDy=0;entryPerimeter=0;movable=0;resizable=0;rotatable=0;deletable=0;editable=0;locked=1;connectable=0;" edge="1" parent="WIyWlLk6GJQsqaUBKTNV-1" source="JpFROwRJeTPu5kX1mH_b-146" target="JpFROwRJeTPu5kX1mH_b-169">
          <mxGeometry relative="1" as="geometry">
            <mxPoint x="1370" y="-760" as="targetPoint" />
          </mxGeometry>
        </mxCell>
        <mxCell id="JpFROwRJeTPu5kX1mH_b-146" value="&lt;font style=&quot;font-size: 6px;&quot;&gt;Input student index&lt;/font&gt;" style="shape=parallelogram;perimeter=parallelogramPerimeter;whiteSpace=wrap;html=1;fixedSize=1;shadow=1;movable=0;resizable=0;rotatable=0;deletable=0;editable=0;locked=1;connectable=0;" vertex="1" parent="WIyWlLk6GJQsqaUBKTNV-1">
          <mxGeometry x="1337.5" y="-800" width="65" height="20" as="geometry" />
        </mxCell>
        <mxCell id="JpFROwRJeTPu5kX1mH_b-162" style="edgeStyle=orthogonalEdgeStyle;rounded=0;orthogonalLoop=1;jettySize=auto;html=1;movable=0;resizable=0;rotatable=0;deletable=0;editable=0;locked=1;connectable=0;" edge="1" parent="WIyWlLk6GJQsqaUBKTNV-1" source="JpFROwRJeTPu5kX1mH_b-147" target="JpFROwRJeTPu5kX1mH_b-163">
          <mxGeometry relative="1" as="geometry">
            <mxPoint x="1270" y="-760" as="targetPoint" />
          </mxGeometry>
        </mxCell>
        <mxCell id="JpFROwRJeTPu5kX1mH_b-147" value="&lt;font style=&quot;font-size: 6px;&quot;&gt;Input student index&lt;/font&gt;" style="shape=parallelogram;perimeter=parallelogramPerimeter;whiteSpace=wrap;html=1;fixedSize=1;shadow=1;movable=0;resizable=0;rotatable=0;deletable=0;editable=0;locked=1;connectable=0;" vertex="1" parent="WIyWlLk6GJQsqaUBKTNV-1">
          <mxGeometry x="1237.5" y="-800" width="65" height="20" as="geometry" />
        </mxCell>
        <mxCell id="JpFROwRJeTPu5kX1mH_b-148" style="edgeStyle=orthogonalEdgeStyle;rounded=0;orthogonalLoop=1;jettySize=auto;html=1;exitX=0.5;exitY=1;exitDx=0;exitDy=0;movable=0;resizable=0;rotatable=0;deletable=0;editable=0;locked=1;connectable=0;" edge="1" parent="WIyWlLk6GJQsqaUBKTNV-1" source="JpFROwRJeTPu5kX1mH_b-145" target="JpFROwRJeTPu5kX1mH_b-145">
          <mxGeometry relative="1" as="geometry" />
        </mxCell>
        <mxCell id="JpFROwRJeTPu5kX1mH_b-149" style="edgeStyle=orthogonalEdgeStyle;rounded=0;orthogonalLoop=1;jettySize=auto;html=1;exitX=0.5;exitY=1;exitDx=0;exitDy=0;movable=0;resizable=0;rotatable=0;deletable=0;editable=0;locked=1;connectable=0;" edge="1" parent="WIyWlLk6GJQsqaUBKTNV-1" source="JpFROwRJeTPu5kX1mH_b-147" target="JpFROwRJeTPu5kX1mH_b-147">
          <mxGeometry relative="1" as="geometry" />
        </mxCell>
        <mxCell id="JpFROwRJeTPu5kX1mH_b-151" style="edgeStyle=orthogonalEdgeStyle;rounded=0;orthogonalLoop=1;jettySize=auto;html=1;exitX=0.5;exitY=1;exitDx=0;exitDy=0;movable=0;resizable=0;rotatable=0;deletable=0;editable=0;locked=1;connectable=0;" edge="1" parent="WIyWlLk6GJQsqaUBKTNV-1" source="JpFROwRJeTPu5kX1mH_b-147" target="JpFROwRJeTPu5kX1mH_b-147">
          <mxGeometry relative="1" as="geometry" />
        </mxCell>
        <mxCell id="JpFROwRJeTPu5kX1mH_b-194" style="edgeStyle=orthogonalEdgeStyle;rounded=0;orthogonalLoop=1;jettySize=auto;html=1;exitX=0.5;exitY=1;exitDx=0;exitDy=0;entryX=0.5;entryY=0;entryDx=0;entryDy=0;movable=0;resizable=0;rotatable=0;deletable=0;editable=0;locked=1;connectable=0;" edge="1" parent="WIyWlLk6GJQsqaUBKTNV-1" source="JpFROwRJeTPu5kX1mH_b-163" target="JpFROwRJeTPu5kX1mH_b-193">
          <mxGeometry relative="1" as="geometry" />
        </mxCell>
        <mxCell id="JpFROwRJeTPu5kX1mH_b-163" value="&lt;font style=&quot;font-size: 6px;&quot;&gt;Calls edit function&lt;/font&gt;" style="rounded=1;whiteSpace=wrap;html=1;shadow=1;movable=0;resizable=0;rotatable=0;deletable=0;editable=0;locked=1;connectable=0;" vertex="1" parent="WIyWlLk6GJQsqaUBKTNV-1">
          <mxGeometry x="1240" y="-752.5" width="60" height="22.5" as="geometry" />
        </mxCell>
        <mxCell id="JpFROwRJeTPu5kX1mH_b-206" style="edgeStyle=orthogonalEdgeStyle;rounded=0;orthogonalLoop=1;jettySize=auto;html=1;exitX=0.5;exitY=1;exitDx=0;exitDy=0;entryX=0.5;entryY=0;entryDx=0;entryDy=0;movable=0;resizable=0;rotatable=0;deletable=0;editable=0;locked=1;connectable=0;" edge="1" parent="WIyWlLk6GJQsqaUBKTNV-1" source="JpFROwRJeTPu5kX1mH_b-169" target="JpFROwRJeTPu5kX1mH_b-205">
          <mxGeometry relative="1" as="geometry" />
        </mxCell>
        <mxCell id="JpFROwRJeTPu5kX1mH_b-169" value="&lt;font style=&quot;font-size: 6px;&quot;&gt;Calls updateGrade function&lt;/font&gt;" style="rounded=1;whiteSpace=wrap;html=1;shadow=1;movable=0;resizable=0;rotatable=0;deletable=0;editable=0;locked=1;connectable=0;" vertex="1" parent="WIyWlLk6GJQsqaUBKTNV-1">
          <mxGeometry x="1337.5" y="-752.5" width="60" height="22.5" as="geometry" />
        </mxCell>
        <mxCell id="JpFROwRJeTPu5kX1mH_b-170" value="&lt;font style=&quot;font-size: 6px;&quot;&gt;Add newGrade function&amp;nbsp;&lt;/font&gt;" style="rounded=1;whiteSpace=wrap;html=1;shadow=1;movable=0;resizable=0;rotatable=0;deletable=0;editable=0;locked=1;connectable=0;" vertex="1" parent="WIyWlLk6GJQsqaUBKTNV-1">
          <mxGeometry x="1437.5" y="-752.5" width="60" height="22.5" as="geometry" />
        </mxCell>
        <mxCell id="JpFROwRJeTPu5kX1mH_b-239" style="edgeStyle=orthogonalEdgeStyle;rounded=0;orthogonalLoop=1;jettySize=auto;html=1;exitX=0.5;exitY=1;exitDx=0;exitDy=0;movable=0;resizable=0;rotatable=0;deletable=0;editable=0;locked=1;connectable=0;" edge="1" parent="WIyWlLk6GJQsqaUBKTNV-1" source="JpFROwRJeTPu5kX1mH_b-171">
          <mxGeometry relative="1" as="geometry">
            <mxPoint x="1559.7368421052633" y="-600" as="targetPoint" />
          </mxGeometry>
        </mxCell>
        <mxCell id="JpFROwRJeTPu5kX1mH_b-171" value="&lt;font style=&quot;font-size: 6px;&quot;&gt;Calls findingAverage function&lt;/font&gt;" style="rounded=1;whiteSpace=wrap;html=1;shadow=1;movable=0;resizable=0;rotatable=0;deletable=0;editable=0;locked=1;connectable=0;" vertex="1" parent="WIyWlLk6GJQsqaUBKTNV-1">
          <mxGeometry x="1530" y="-752.5" width="60" height="22.5" as="geometry" />
        </mxCell>
        <mxCell id="JpFROwRJeTPu5kX1mH_b-172" style="edgeStyle=orthogonalEdgeStyle;rounded=0;orthogonalLoop=1;jettySize=auto;html=1;exitX=0.5;exitY=1;exitDx=0;exitDy=0;movable=0;resizable=0;rotatable=0;deletable=0;editable=0;locked=1;connectable=0;" edge="1" parent="WIyWlLk6GJQsqaUBKTNV-1" source="JpFROwRJeTPu5kX1mH_b-169" target="JpFROwRJeTPu5kX1mH_b-169">
          <mxGeometry relative="1" as="geometry" />
        </mxCell>
        <mxCell id="JpFROwRJeTPu5kX1mH_b-228" style="edgeStyle=orthogonalEdgeStyle;rounded=0;orthogonalLoop=1;jettySize=auto;html=1;exitX=0.5;exitY=1;exitDx=0;exitDy=0;entryX=1;entryY=0.5;entryDx=0;entryDy=0;movable=0;resizable=0;rotatable=0;deletable=0;editable=0;locked=1;connectable=0;" edge="1" parent="WIyWlLk6GJQsqaUBKTNV-1" source="JpFROwRJeTPu5kX1mH_b-181" target="WIyWlLk6GJQsqaUBKTNV-3">
          <mxGeometry relative="1" as="geometry">
            <Array as="points">
              <mxPoint x="750" y="-600" />
              <mxPoint x="1650" y="-600" />
              <mxPoint x="1650" y="-990" />
            </Array>
          </mxGeometry>
        </mxCell>
        <mxCell id="JpFROwRJeTPu5kX1mH_b-181" value="&lt;font style=&quot;font-size: 6px;&quot;&gt;Calls LoadDataFromFile Function&lt;/font&gt;" style="rounded=1;whiteSpace=wrap;html=1;movable=0;resizable=0;rotatable=0;deletable=0;editable=0;locked=1;connectable=0;" vertex="1" parent="WIyWlLk6GJQsqaUBKTNV-1">
          <mxGeometry x="710" y="-740" width="80" height="30" as="geometry" />
        </mxCell>
        <mxCell id="JpFROwRJeTPu5kX1mH_b-189" style="edgeStyle=orthogonalEdgeStyle;rounded=0;orthogonalLoop=1;jettySize=auto;html=1;exitX=0.5;exitY=1;exitDx=0;exitDy=0;entryX=0.5;entryY=0;entryDx=0;entryDy=0;movable=0;resizable=0;rotatable=0;deletable=0;editable=0;locked=1;connectable=0;" edge="1" parent="WIyWlLk6GJQsqaUBKTNV-1" source="JpFROwRJeTPu5kX1mH_b-183" target="JpFROwRJeTPu5kX1mH_b-186">
          <mxGeometry relative="1" as="geometry" />
        </mxCell>
        <mxCell id="JpFROwRJeTPu5kX1mH_b-183" value="&lt;font style=&quot;font-size: 6px;&quot;&gt;Input student index&lt;/font&gt;" style="shape=parallelogram;perimeter=parallelogramPerimeter;whiteSpace=wrap;html=1;fixedSize=1;size=10;shadow=1;movable=0;resizable=0;rotatable=0;deletable=0;editable=0;locked=1;connectable=0;" vertex="1" parent="WIyWlLk6GJQsqaUBKTNV-1">
          <mxGeometry x="1139.5" y="-720" width="55" height="30" as="geometry" />
        </mxCell>
        <mxCell id="JpFROwRJeTPu5kX1mH_b-233" style="edgeStyle=orthogonalEdgeStyle;rounded=0;orthogonalLoop=1;jettySize=auto;html=1;exitX=0.5;exitY=1;exitDx=0;exitDy=0;movable=0;resizable=0;rotatable=0;deletable=0;editable=0;locked=1;connectable=0;" edge="1" parent="WIyWlLk6GJQsqaUBKTNV-1" source="JpFROwRJeTPu5kX1mH_b-186">
          <mxGeometry relative="1" as="geometry">
            <mxPoint x="1167.105263157895" y="-600" as="targetPoint" />
          </mxGeometry>
        </mxCell>
        <mxCell id="JpFROwRJeTPu5kX1mH_b-186" value="&lt;font style=&quot;font-size: 6px;&quot;&gt;Output&amp;nbsp; all info for the student&lt;/font&gt;" style="rounded=1;whiteSpace=wrap;html=1;shadow=1;movable=0;resizable=0;rotatable=0;deletable=0;editable=0;locked=1;connectable=0;" vertex="1" parent="WIyWlLk6GJQsqaUBKTNV-1">
          <mxGeometry x="1134.5" y="-680" width="65" height="27.5" as="geometry" />
        </mxCell>
        <mxCell id="JpFROwRJeTPu5kX1mH_b-235" style="edgeStyle=orthogonalEdgeStyle;rounded=0;orthogonalLoop=1;jettySize=auto;html=1;exitX=0.5;exitY=1;exitDx=0;exitDy=0;movable=0;resizable=0;rotatable=0;deletable=0;editable=0;locked=1;connectable=0;" edge="1" parent="WIyWlLk6GJQsqaUBKTNV-1" source="JpFROwRJeTPu5kX1mH_b-193">
          <mxGeometry relative="1" as="geometry">
            <mxPoint x="1270.263157894737" y="-600" as="targetPoint" />
          </mxGeometry>
        </mxCell>
        <mxCell id="JpFROwRJeTPu5kX1mH_b-193" value="&lt;font style=&quot;font-size: 6px;&quot;&gt;Input new info&lt;/font&gt;" style="shape=parallelogram;perimeter=parallelogramPerimeter;whiteSpace=wrap;html=1;fixedSize=1;size=10;shadow=1;movable=0;resizable=0;rotatable=0;deletable=0;editable=0;locked=1;connectable=0;" vertex="1" parent="WIyWlLk6GJQsqaUBKTNV-1">
          <mxGeometry x="1242.5" y="-720" width="55" height="30" as="geometry" />
        </mxCell>
        <mxCell id="JpFROwRJeTPu5kX1mH_b-202" style="edgeStyle=orthogonalEdgeStyle;rounded=0;orthogonalLoop=1;jettySize=auto;html=1;exitX=0.5;exitY=1;exitDx=0;exitDy=0;movable=0;resizable=0;rotatable=0;deletable=0;editable=0;locked=1;connectable=0;" edge="1" parent="WIyWlLk6GJQsqaUBKTNV-1" source="JpFROwRJeTPu5kX1mH_b-169" target="JpFROwRJeTPu5kX1mH_b-169">
          <mxGeometry relative="1" as="geometry" />
        </mxCell>
        <mxCell id="JpFROwRJeTPu5kX1mH_b-214" style="edgeStyle=orthogonalEdgeStyle;rounded=0;orthogonalLoop=1;jettySize=auto;html=1;exitX=0.5;exitY=1;exitDx=0;exitDy=0;entryX=0.5;entryY=0;entryDx=0;entryDy=0;movable=0;resizable=0;rotatable=0;deletable=0;editable=0;locked=1;connectable=0;" edge="1" parent="WIyWlLk6GJQsqaUBKTNV-1" source="JpFROwRJeTPu5kX1mH_b-205" target="JpFROwRJeTPu5kX1mH_b-211">
          <mxGeometry relative="1" as="geometry" />
        </mxCell>
        <mxCell id="JpFROwRJeTPu5kX1mH_b-205" value="&lt;font style=&quot;font-size: 6px;&quot;&gt;Input grade for first three assessments&lt;/font&gt;" style="shape=parallelogram;perimeter=parallelogramPerimeter;whiteSpace=wrap;html=1;fixedSize=1;size=10;shadow=1;movable=0;resizable=0;rotatable=0;deletable=0;editable=0;locked=1;connectable=0;" vertex="1" parent="WIyWlLk6GJQsqaUBKTNV-1">
          <mxGeometry x="1337.5" y="-720" width="65" height="30" as="geometry" />
        </mxCell>
        <mxCell id="JpFROwRJeTPu5kX1mH_b-217" style="edgeStyle=orthogonalEdgeStyle;rounded=0;orthogonalLoop=1;jettySize=auto;html=1;entryX=1;entryY=0.25;entryDx=0;entryDy=0;movable=0;resizable=0;rotatable=0;deletable=0;editable=0;locked=1;connectable=0;" edge="1" parent="WIyWlLk6GJQsqaUBKTNV-1" source="JpFROwRJeTPu5kX1mH_b-211" target="JpFROwRJeTPu5kX1mH_b-157">
          <mxGeometry relative="1" as="geometry">
            <Array as="points">
              <mxPoint x="1030" y="-640" />
              <mxPoint x="1030" y="-792" />
            </Array>
          </mxGeometry>
        </mxCell>
        <mxCell id="JpFROwRJeTPu5kX1mH_b-218" value="No" style="edgeLabel;html=1;align=center;verticalAlign=middle;resizable=0;points=[];movable=0;rotatable=0;deletable=0;editable=0;locked=1;connectable=0;" connectable="0" vertex="1" parent="JpFROwRJeTPu5kX1mH_b-217">
          <mxGeometry x="-0.7965" y="-2" relative="1" as="geometry">
            <mxPoint as="offset" />
          </mxGeometry>
        </mxCell>
        <mxCell id="JpFROwRJeTPu5kX1mH_b-225" style="edgeStyle=orthogonalEdgeStyle;rounded=0;orthogonalLoop=1;jettySize=auto;html=1;exitX=1;exitY=0.5;exitDx=0;exitDy=0;entryX=0;entryY=0.5;entryDx=0;entryDy=0;movable=0;resizable=0;rotatable=0;deletable=0;editable=0;locked=1;connectable=0;" edge="1" parent="WIyWlLk6GJQsqaUBKTNV-1" source="JpFROwRJeTPu5kX1mH_b-211" target="JpFROwRJeTPu5kX1mH_b-224">
          <mxGeometry relative="1" as="geometry">
            <Array as="points">
              <mxPoint x="1420" y="-640" />
              <mxPoint x="1420" y="-700" />
            </Array>
          </mxGeometry>
        </mxCell>
        <mxCell id="JpFROwRJeTPu5kX1mH_b-226" value="Yes" style="edgeLabel;html=1;align=center;verticalAlign=middle;resizable=0;points=[];movable=0;rotatable=0;deletable=0;editable=0;locked=1;connectable=0;" connectable="0" vertex="1" parent="JpFROwRJeTPu5kX1mH_b-225">
          <mxGeometry x="-0.0218" y="1" relative="1" as="geometry">
            <mxPoint as="offset" />
          </mxGeometry>
        </mxCell>
        <mxCell id="JpFROwRJeTPu5kX1mH_b-211" value="&lt;span style=&quot;font-size: 6px;&quot;&gt;Have 4th result?&lt;/span&gt;" style="rhombus;whiteSpace=wrap;html=1;movable=0;resizable=0;rotatable=0;deletable=0;editable=0;locked=1;connectable=0;" vertex="1" parent="WIyWlLk6GJQsqaUBKTNV-1">
          <mxGeometry x="1345" y="-660" width="50" height="40" as="geometry" />
        </mxCell>
        <mxCell id="JpFROwRJeTPu5kX1mH_b-212" style="edgeStyle=orthogonalEdgeStyle;rounded=0;orthogonalLoop=1;jettySize=auto;html=1;exitX=0.5;exitY=1;exitDx=0;exitDy=0;movable=0;resizable=0;rotatable=0;deletable=0;editable=0;locked=1;connectable=0;" edge="1" parent="WIyWlLk6GJQsqaUBKTNV-1" source="JpFROwRJeTPu5kX1mH_b-205" target="JpFROwRJeTPu5kX1mH_b-205">
          <mxGeometry relative="1" as="geometry" />
        </mxCell>
        <mxCell id="JpFROwRJeTPu5kX1mH_b-216" style="edgeStyle=orthogonalEdgeStyle;rounded=0;orthogonalLoop=1;jettySize=auto;html=1;exitX=0.5;exitY=1;exitDx=0;exitDy=0;movable=0;resizable=0;rotatable=0;deletable=0;editable=0;locked=1;connectable=0;" edge="1" parent="WIyWlLk6GJQsqaUBKTNV-1" source="JpFROwRJeTPu5kX1mH_b-211" target="JpFROwRJeTPu5kX1mH_b-211">
          <mxGeometry relative="1" as="geometry" />
        </mxCell>
        <mxCell id="JpFROwRJeTPu5kX1mH_b-220" style="edgeStyle=orthogonalEdgeStyle;rounded=0;orthogonalLoop=1;jettySize=auto;html=1;exitX=0.5;exitY=1;exitDx=0;exitDy=0;movable=0;resizable=0;rotatable=0;deletable=0;editable=0;locked=1;connectable=0;" edge="1" parent="WIyWlLk6GJQsqaUBKTNV-1" source="JpFROwRJeTPu5kX1mH_b-170" target="JpFROwRJeTPu5kX1mH_b-170">
          <mxGeometry relative="1" as="geometry" />
        </mxCell>
        <mxCell id="JpFROwRJeTPu5kX1mH_b-222" style="edgeStyle=orthogonalEdgeStyle;rounded=0;orthogonalLoop=1;jettySize=auto;html=1;exitX=0.5;exitY=1;exitDx=0;exitDy=0;movable=0;resizable=0;rotatable=0;deletable=0;editable=0;locked=1;connectable=0;" edge="1" parent="WIyWlLk6GJQsqaUBKTNV-1" source="JpFROwRJeTPu5kX1mH_b-170" target="JpFROwRJeTPu5kX1mH_b-170">
          <mxGeometry relative="1" as="geometry" />
        </mxCell>
        <mxCell id="JpFROwRJeTPu5kX1mH_b-227" style="edgeStyle=orthogonalEdgeStyle;rounded=0;orthogonalLoop=1;jettySize=auto;html=1;exitX=1;exitY=0.5;exitDx=0;exitDy=0;entryX=0;entryY=0.5;entryDx=0;entryDy=0;movable=0;resizable=0;rotatable=0;deletable=0;editable=0;locked=1;connectable=0;" edge="1" parent="WIyWlLk6GJQsqaUBKTNV-1" source="JpFROwRJeTPu5kX1mH_b-224" target="JpFROwRJeTPu5kX1mH_b-171">
          <mxGeometry relative="1" as="geometry">
            <Array as="points">
              <mxPoint x="1510" y="-700" />
              <mxPoint x="1510" y="-741" />
            </Array>
          </mxGeometry>
        </mxCell>
        <mxCell id="JpFROwRJeTPu5kX1mH_b-237" style="edgeStyle=orthogonalEdgeStyle;rounded=0;orthogonalLoop=1;jettySize=auto;html=1;exitX=0.5;exitY=1;exitDx=0;exitDy=0;movable=0;resizable=0;rotatable=0;deletable=0;editable=0;locked=1;connectable=0;" edge="1" parent="WIyWlLk6GJQsqaUBKTNV-1" source="JpFROwRJeTPu5kX1mH_b-224">
          <mxGeometry relative="1" as="geometry">
            <mxPoint x="1465" y="-600" as="targetPoint" />
          </mxGeometry>
        </mxCell>
        <mxCell id="JpFROwRJeTPu5kX1mH_b-224" value="&lt;font style=&quot;font-size: 6px;&quot;&gt;Input new grade&lt;/font&gt;" style="shape=parallelogram;perimeter=parallelogramPerimeter;whiteSpace=wrap;html=1;fixedSize=1;shadow=1;movable=0;resizable=0;rotatable=0;deletable=0;editable=0;locked=1;connectable=0;" vertex="1" parent="WIyWlLk6GJQsqaUBKTNV-1">
          <mxGeometry x="1432.5" y="-710" width="65" height="20" as="geometry" />
        </mxCell>
        <mxCell id="JpFROwRJeTPu5kX1mH_b-229" style="edgeStyle=orthogonalEdgeStyle;rounded=0;orthogonalLoop=1;jettySize=auto;html=1;exitX=0.5;exitY=1;exitDx=0;exitDy=0;movable=0;resizable=0;rotatable=0;deletable=0;editable=0;locked=1;connectable=0;" edge="1" parent="WIyWlLk6GJQsqaUBKTNV-1" source="JpFROwRJeTPu5kX1mH_b-133" target="JpFROwRJeTPu5kX1mH_b-133">
          <mxGeometry relative="1" as="geometry" />
        </mxCell>
        <mxCell id="JpFROwRJeTPu5kX1mH_b-236" style="edgeStyle=orthogonalEdgeStyle;rounded=0;orthogonalLoop=1;jettySize=auto;html=1;exitX=0.5;exitY=1;exitDx=0;exitDy=0;movable=0;resizable=0;rotatable=0;deletable=0;editable=0;locked=1;connectable=0;" edge="1" parent="WIyWlLk6GJQsqaUBKTNV-1" source="JpFROwRJeTPu5kX1mH_b-224" target="JpFROwRJeTPu5kX1mH_b-224">
          <mxGeometry relative="1" as="geometry" />
        </mxCell>
        <mxCell id="JpFROwRJeTPu5kX1mH_b-238" style="edgeStyle=orthogonalEdgeStyle;rounded=0;orthogonalLoop=1;jettySize=auto;html=1;exitX=0.5;exitY=1;exitDx=0;exitDy=0;movable=0;resizable=0;rotatable=0;deletable=0;editable=0;locked=1;connectable=0;" edge="1" parent="WIyWlLk6GJQsqaUBKTNV-1" source="JpFROwRJeTPu5kX1mH_b-171" target="JpFROwRJeTPu5kX1mH_b-171">
          <mxGeometry relative="1" as="geometry" />
        </mxCell>
        <mxCell id="JpFROwRJeTPu5kX1mH_b-240" value="While loop continues until exit is chosen from menu" style="text;html=1;align=center;verticalAlign=middle;resizable=0;points=[];autosize=1;strokeColor=none;fillColor=none;movable=0;rotatable=0;deletable=0;editable=0;locked=1;connectable=0;" vertex="1" parent="WIyWlLk6GJQsqaUBKTNV-1">
          <mxGeometry x="960" y="-602" width="300" height="30" as="geometry" />
        </mxCell>
        <mxCell id="JpFROwRJeTPu5kX1mH_b-248" style="edgeStyle=orthogonalEdgeStyle;rounded=0;orthogonalLoop=1;jettySize=auto;html=1;exitX=0.5;exitY=1;exitDx=0;exitDy=0;entryX=0.5;entryY=0;entryDx=0;entryDy=0;movable=0;resizable=0;rotatable=0;deletable=0;editable=0;locked=1;connectable=0;" edge="1" parent="WIyWlLk6GJQsqaUBKTNV-1" source="JpFROwRJeTPu5kX1mH_b-241" target="JpFROwRJeTPu5kX1mH_b-245">
          <mxGeometry relative="1" as="geometry" />
        </mxCell>
        <mxCell id="JpFROwRJeTPu5kX1mH_b-241" value="&lt;font style=&quot;font-size: 8px;&quot;&gt;Calls the WriteToFile function&lt;/font&gt;" style="whiteSpace=wrap;html=1;rounded=1;shadow=1;movable=0;resizable=0;rotatable=0;deletable=0;editable=0;locked=1;connectable=0;" vertex="1" parent="WIyWlLk6GJQsqaUBKTNV-1">
          <mxGeometry x="600" y="-847.5" width="80" height="27.5" as="geometry" />
        </mxCell>
        <mxCell id="JpFROwRJeTPu5kX1mH_b-242" style="edgeStyle=orthogonalEdgeStyle;rounded=0;orthogonalLoop=1;jettySize=auto;html=1;exitX=0.5;exitY=1;exitDx=0;exitDy=0;movable=0;resizable=0;rotatable=0;deletable=0;editable=0;locked=1;connectable=0;" edge="1" parent="WIyWlLk6GJQsqaUBKTNV-1" source="JpFROwRJeTPu5kX1mH_b-44" target="JpFROwRJeTPu5kX1mH_b-44">
          <mxGeometry relative="1" as="geometry" />
        </mxCell>
        <mxCell id="JpFROwRJeTPu5kX1mH_b-243" style="edgeStyle=orthogonalEdgeStyle;rounded=0;orthogonalLoop=1;jettySize=auto;html=1;exitX=0.5;exitY=1;exitDx=0;exitDy=0;movable=0;resizable=0;rotatable=0;deletable=0;editable=0;locked=1;connectable=0;" edge="1" parent="WIyWlLk6GJQsqaUBKTNV-1" source="JpFROwRJeTPu5kX1mH_b-44" target="JpFROwRJeTPu5kX1mH_b-44">
          <mxGeometry relative="1" as="geometry" />
        </mxCell>
        <mxCell id="JpFROwRJeTPu5kX1mH_b-245" value="End" style="ellipse;whiteSpace=wrap;html=1;movable=0;resizable=0;rotatable=0;deletable=0;editable=0;locked=1;connectable=0;" vertex="1" parent="WIyWlLk6GJQsqaUBKTNV-1">
          <mxGeometry x="600" y="-800" width="80" height="30" as="geometry" />
        </mxCell>
        <mxCell id="JpFROwRJeTPu5kX1mH_b-246" style="edgeStyle=orthogonalEdgeStyle;rounded=0;orthogonalLoop=1;jettySize=auto;html=1;exitX=0.5;exitY=1;exitDx=0;exitDy=0;movable=0;resizable=0;rotatable=0;deletable=0;editable=0;locked=1;connectable=0;" edge="1" parent="WIyWlLk6GJQsqaUBKTNV-1" source="JpFROwRJeTPu5kX1mH_b-241" target="JpFROwRJeTPu5kX1mH_b-241">
          <mxGeometry relative="1" as="geometry" />
        </mxCell>
        <mxCell id="JpFROwRJeTPu5kX1mH_b-247" style="edgeStyle=orthogonalEdgeStyle;rounded=0;orthogonalLoop=1;jettySize=auto;html=1;exitX=0.5;exitY=1;exitDx=0;exitDy=0;movable=0;resizable=0;rotatable=0;deletable=0;editable=0;locked=1;connectable=0;" edge="1" parent="WIyWlLk6GJQsqaUBKTNV-1" source="JpFROwRJeTPu5kX1mH_b-241" target="JpFROwRJeTPu5kX1mH_b-241">
          <mxGeometry relative="1" as="geometry" />
        </mxCell>
        <mxCell id="JpFROwRJeTPu5kX1mH_b-252" value="" style="edgeStyle=orthogonalEdgeStyle;rounded=0;orthogonalLoop=1;jettySize=auto;html=1;exitX=0.917;exitY=1;exitDx=0;exitDy=0;exitPerimeter=0;movable=0;resizable=0;rotatable=0;deletable=0;editable=0;locked=1;connectable=0;" edge="1" parent="WIyWlLk6GJQsqaUBKTNV-1" source="JpFROwRJeTPu5kX1mH_b-249" target="JpFROwRJeTPu5kX1mH_b-251">
          <mxGeometry relative="1" as="geometry">
            <Array as="points">
              <mxPoint x="230" y="-997.5" />
              <mxPoint x="230" y="-997.5" />
            </Array>
          </mxGeometry>
        </mxCell>
        <mxCell id="JpFROwRJeTPu5kX1mH_b-268" style="edgeStyle=orthogonalEdgeStyle;rounded=0;orthogonalLoop=1;jettySize=auto;html=1;exitX=0;exitY=0.5;exitDx=0;exitDy=0;entryX=1;entryY=0.5;entryDx=0;entryDy=0;movable=0;resizable=0;rotatable=0;deletable=0;editable=0;locked=1;connectable=0;" edge="1" parent="WIyWlLk6GJQsqaUBKTNV-1" source="JpFROwRJeTPu5kX1mH_b-249" target="JpFROwRJeTPu5kX1mH_b-267">
          <mxGeometry relative="1" as="geometry" />
        </mxCell>
        <mxCell id="JpFROwRJeTPu5kX1mH_b-249" value="AddGrades Function" style="rounded=1;whiteSpace=wrap;html=1;movable=0;resizable=0;rotatable=0;deletable=0;editable=0;locked=1;connectable=0;" vertex="1" parent="WIyWlLk6GJQsqaUBKTNV-1">
          <mxGeometry x="150" y="-1077.5" width="120" height="60" as="geometry" />
        </mxCell>
        <mxCell id="JpFROwRJeTPu5kX1mH_b-254" style="edgeStyle=orthogonalEdgeStyle;rounded=0;orthogonalLoop=1;jettySize=auto;html=1;exitX=0.5;exitY=1;exitDx=0;exitDy=0;entryX=0.5;entryY=0;entryDx=0;entryDy=0;movable=0;resizable=0;rotatable=0;deletable=0;editable=0;locked=1;connectable=0;" edge="1" parent="WIyWlLk6GJQsqaUBKTNV-1" source="JpFROwRJeTPu5kX1mH_b-251" target="JpFROwRJeTPu5kX1mH_b-253">
          <mxGeometry relative="1" as="geometry" />
        </mxCell>
        <mxCell id="JpFROwRJeTPu5kX1mH_b-251" value="calls addData function" style="whiteSpace=wrap;html=1;rounded=1;movable=0;resizable=0;rotatable=0;deletable=0;editable=0;locked=1;connectable=0;" vertex="1" parent="WIyWlLk6GJQsqaUBKTNV-1">
          <mxGeometry x="170" y="-967.5" width="120" height="60" as="geometry" />
        </mxCell>
        <mxCell id="JpFROwRJeTPu5kX1mH_b-255" style="edgeStyle=orthogonalEdgeStyle;rounded=0;orthogonalLoop=1;jettySize=auto;html=1;exitX=1;exitY=0.5;exitDx=0;exitDy=0;entryX=1;entryY=0.5;entryDx=0;entryDy=0;entryPerimeter=0;movable=0;resizable=0;rotatable=0;deletable=0;editable=0;locked=1;connectable=0;" edge="1" parent="WIyWlLk6GJQsqaUBKTNV-1" source="JpFROwRJeTPu5kX1mH_b-253" target="JpFROwRJeTPu5kX1mH_b-249">
          <mxGeometry relative="1" as="geometry">
            <Array as="points">
              <mxPoint x="330" y="-847.5" />
              <mxPoint x="330" y="-1047.5" />
            </Array>
          </mxGeometry>
        </mxCell>
        <mxCell id="JpFROwRJeTPu5kX1mH_b-256" value="&lt;font style=&quot;font-size: 6px;&quot;&gt;For loop goes on for three times&lt;/font&gt;" style="edgeLabel;html=1;align=center;verticalAlign=middle;resizable=0;points=[];movable=0;rotatable=0;deletable=0;editable=0;locked=1;connectable=0;" connectable="0" vertex="1" parent="JpFROwRJeTPu5kX1mH_b-255">
          <mxGeometry x="0.0527" y="-1" relative="1" as="geometry">
            <mxPoint y="6" as="offset" />
          </mxGeometry>
        </mxCell>
        <mxCell id="JpFROwRJeTPu5kX1mH_b-259" style="edgeStyle=orthogonalEdgeStyle;rounded=0;orthogonalLoop=1;jettySize=auto;html=1;exitX=0.5;exitY=1;exitDx=0;exitDy=0;entryX=0.5;entryY=0;entryDx=0;entryDy=0;movable=0;resizable=0;rotatable=0;deletable=0;editable=0;locked=1;connectable=0;" edge="1" parent="WIyWlLk6GJQsqaUBKTNV-1" source="JpFROwRJeTPu5kX1mH_b-253" target="JpFROwRJeTPu5kX1mH_b-257">
          <mxGeometry relative="1" as="geometry" />
        </mxCell>
        <mxCell id="JpFROwRJeTPu5kX1mH_b-253" value="input grades" style="shape=parallelogram;perimeter=parallelogramPerimeter;whiteSpace=wrap;html=1;fixedSize=1;movable=0;resizable=0;rotatable=0;deletable=0;editable=0;locked=1;connectable=0;" vertex="1" parent="WIyWlLk6GJQsqaUBKTNV-1">
          <mxGeometry x="170" y="-867.5" width="120" height="60" as="geometry" />
        </mxCell>
        <mxCell id="JpFROwRJeTPu5kX1mH_b-260" value="yes" style="edgeStyle=orthogonalEdgeStyle;rounded=0;orthogonalLoop=1;jettySize=auto;html=1;exitX=1;exitY=0.5;exitDx=0;exitDy=0;movable=0;resizable=0;rotatable=0;deletable=0;editable=0;locked=1;connectable=0;" edge="1" parent="WIyWlLk6GJQsqaUBKTNV-1" source="JpFROwRJeTPu5kX1mH_b-257">
          <mxGeometry x="-0.8889" relative="1" as="geometry">
            <mxPoint x="170" y="-937.5" as="targetPoint" />
            <Array as="points">
              <mxPoint x="140" y="-737.5" />
              <mxPoint x="140" y="-937.5" />
            </Array>
            <mxPoint as="offset" />
          </mxGeometry>
        </mxCell>
        <mxCell id="JpFROwRJeTPu5kX1mH_b-262" value="Yes" style="edgeLabel;html=1;align=center;verticalAlign=middle;resizable=0;points=[];movable=0;rotatable=0;deletable=0;editable=0;locked=1;connectable=0;" connectable="0" vertex="1" parent="JpFROwRJeTPu5kX1mH_b-260">
          <mxGeometry x="-0.3912" y="-7" relative="1" as="geometry">
            <mxPoint as="offset" />
          </mxGeometry>
        </mxCell>
        <mxCell id="JpFROwRJeTPu5kX1mH_b-264" style="edgeStyle=orthogonalEdgeStyle;rounded=0;orthogonalLoop=1;jettySize=auto;html=1;exitX=0.5;exitY=1;exitDx=0;exitDy=0;entryX=0.5;entryY=0;entryDx=0;entryDy=0;movable=0;resizable=0;rotatable=0;deletable=0;editable=0;locked=1;connectable=0;" edge="1" parent="WIyWlLk6GJQsqaUBKTNV-1" source="JpFROwRJeTPu5kX1mH_b-257">
          <mxGeometry relative="1" as="geometry">
            <mxPoint x="230" y="-647.5000000000001" as="targetPoint" />
            <Array as="points">
              <mxPoint x="230" y="-677.5" />
              <mxPoint x="230" y="-677.5" />
            </Array>
          </mxGeometry>
        </mxCell>
        <mxCell id="JpFROwRJeTPu5kX1mH_b-265" value="No" style="edgeLabel;html=1;align=center;verticalAlign=middle;resizable=0;points=[];movable=0;rotatable=0;deletable=0;editable=0;locked=1;connectable=0;" connectable="0" vertex="1" parent="JpFROwRJeTPu5kX1mH_b-264">
          <mxGeometry x="-0.2819" y="-3" relative="1" as="geometry">
            <mxPoint as="offset" />
          </mxGeometry>
        </mxCell>
        <mxCell id="JpFROwRJeTPu5kX1mH_b-257" value="4th grade available?" style="rhombus;whiteSpace=wrap;html=1;movable=0;resizable=0;rotatable=0;deletable=0;editable=0;locked=1;connectable=0;" vertex="1" parent="WIyWlLk6GJQsqaUBKTNV-1">
          <mxGeometry x="190" y="-777.5" width="80" height="80" as="geometry" />
        </mxCell>
        <mxCell id="JpFROwRJeTPu5kX1mH_b-341" style="edgeStyle=orthogonalEdgeStyle;rounded=0;orthogonalLoop=1;jettySize=auto;html=1;entryX=0.5;entryY=0;entryDx=0;entryDy=0;" edge="1" parent="WIyWlLk6GJQsqaUBKTNV-1" source="JpFROwRJeTPu5kX1mH_b-263" target="JpFROwRJeTPu5kX1mH_b-340">
          <mxGeometry relative="1" as="geometry" />
        </mxCell>
        <mxCell id="JpFROwRJeTPu5kX1mH_b-263" value="Calls displayfourthgrade function" style="rounded=1;whiteSpace=wrap;html=1;movable=1;resizable=1;rotatable=1;deletable=1;editable=1;locked=0;connectable=1;" vertex="1" parent="WIyWlLk6GJQsqaUBKTNV-1">
          <mxGeometry x="170" y="-647.5" width="120" height="60" as="geometry" />
        </mxCell>
        <mxCell id="JpFROwRJeTPu5kX1mH_b-271" style="edgeStyle=orthogonalEdgeStyle;rounded=0;orthogonalLoop=1;jettySize=auto;html=1;exitX=0;exitY=0.5;exitDx=0;exitDy=0;entryX=1;entryY=0.5;entryDx=0;entryDy=0;" edge="1" parent="WIyWlLk6GJQsqaUBKTNV-1" source="JpFROwRJeTPu5kX1mH_b-267" target="JpFROwRJeTPu5kX1mH_b-270">
          <mxGeometry relative="1" as="geometry" />
        </mxCell>
        <mxCell id="JpFROwRJeTPu5kX1mH_b-267" value="Calls FindAVG" style="rounded=1;whiteSpace=wrap;html=1;movable=1;resizable=1;rotatable=1;deletable=1;editable=1;locked=0;connectable=1;" vertex="1" parent="WIyWlLk6GJQsqaUBKTNV-1">
          <mxGeometry x="-10" y="-1077.5" width="110" height="60" as="geometry" />
        </mxCell>
        <mxCell id="JpFROwRJeTPu5kX1mH_b-272" style="edgeStyle=orthogonalEdgeStyle;rounded=0;orthogonalLoop=1;jettySize=auto;html=1;exitX=0.5;exitY=1;exitDx=0;exitDy=0;" edge="1" parent="WIyWlLk6GJQsqaUBKTNV-1" source="JpFROwRJeTPu5kX1mH_b-270">
          <mxGeometry relative="1" as="geometry">
            <mxPoint x="-130.26315789473665" y="-960" as="targetPoint" />
          </mxGeometry>
        </mxCell>
        <mxCell id="JpFROwRJeTPu5kX1mH_b-273" value="Yes" style="edgeLabel;html=1;align=center;verticalAlign=middle;resizable=0;points=[];" connectable="0" vertex="1" parent="JpFROwRJeTPu5kX1mH_b-272">
          <mxGeometry x="-0.067" y="4" relative="1" as="geometry">
            <mxPoint as="offset" />
          </mxGeometry>
        </mxCell>
        <mxCell id="JpFROwRJeTPu5kX1mH_b-270" value="Grade.size&amp;gt;0" style="rhombus;whiteSpace=wrap;html=1;" vertex="1" parent="WIyWlLk6GJQsqaUBKTNV-1">
          <mxGeometry x="-180" y="-1087.5" width="100" height="80" as="geometry" />
        </mxCell>
        <mxCell id="JpFROwRJeTPu5kX1mH_b-279" style="edgeStyle=orthogonalEdgeStyle;rounded=0;orthogonalLoop=1;jettySize=auto;html=1;exitX=0.5;exitY=1;exitDx=0;exitDy=0;entryX=0.5;entryY=0;entryDx=0;entryDy=0;" edge="1" parent="WIyWlLk6GJQsqaUBKTNV-1" source="JpFROwRJeTPu5kX1mH_b-274" target="JpFROwRJeTPu5kX1mH_b-278">
          <mxGeometry relative="1" as="geometry">
            <Array as="points">
              <mxPoint x="-120" y="-880" />
              <mxPoint x="-120" y="-870" />
              <mxPoint x="-130" y="-870" />
            </Array>
          </mxGeometry>
        </mxCell>
        <mxCell id="JpFROwRJeTPu5kX1mH_b-280" value="No" style="edgeLabel;html=1;align=center;verticalAlign=middle;resizable=0;points=[];" connectable="0" vertex="1" parent="JpFROwRJeTPu5kX1mH_b-279">
          <mxGeometry x="-0.1844" y="-3" relative="1" as="geometry">
            <mxPoint y="-1" as="offset" />
          </mxGeometry>
        </mxCell>
        <mxCell id="JpFROwRJeTPu5kX1mH_b-274" value="Grades.size&amp;gt;=1" style="rhombus;whiteSpace=wrap;html=1;" vertex="1" parent="WIyWlLk6GJQsqaUBKTNV-1">
          <mxGeometry x="-180" y="-960" width="100" height="80" as="geometry" />
        </mxCell>
        <mxCell id="JpFROwRJeTPu5kX1mH_b-275" value="" style="endArrow=classic;html=1;rounded=0;exitX=0;exitY=0.5;exitDx=0;exitDy=0;exitPerimeter=0;entryX=1;entryY=0.5;entryDx=0;entryDy=0;entryPerimeter=0;" edge="1" parent="WIyWlLk6GJQsqaUBKTNV-1" source="JpFROwRJeTPu5kX1mH_b-274" target="JpFROwRJeTPu5kX1mH_b-276">
          <mxGeometry width="50" height="50" relative="1" as="geometry">
            <mxPoint x="-70" y="-990" as="sourcePoint" />
            <mxPoint x="-20" y="-1040" as="targetPoint" />
            <Array as="points" />
          </mxGeometry>
        </mxCell>
        <mxCell id="JpFROwRJeTPu5kX1mH_b-277" value="Yes" style="edgeLabel;html=1;align=center;verticalAlign=middle;resizable=0;points=[];" connectable="0" vertex="1" parent="JpFROwRJeTPu5kX1mH_b-275">
          <mxGeometry x="0.0322" y="-1" relative="1" as="geometry">
            <mxPoint as="offset" />
          </mxGeometry>
        </mxCell>
        <mxCell id="JpFROwRJeTPu5kX1mH_b-284" style="edgeStyle=orthogonalEdgeStyle;rounded=0;orthogonalLoop=1;jettySize=auto;html=1;exitX=0.5;exitY=1;exitDx=0;exitDy=0;entryX=0.503;entryY=0.094;entryDx=0;entryDy=0;entryPerimeter=0;" edge="1" parent="WIyWlLk6GJQsqaUBKTNV-1" source="JpFROwRJeTPu5kX1mH_b-276" target="JpFROwRJeTPu5kX1mH_b-282">
          <mxGeometry relative="1" as="geometry">
            <mxPoint x="-299.7368421052631" y="-870" as="targetPoint" />
            <Array as="points" />
          </mxGeometry>
        </mxCell>
        <mxCell id="JpFROwRJeTPu5kX1mH_b-276" value="calculate first grade considering the credit for AVG" style="rounded=1;whiteSpace=wrap;html=1;" vertex="1" parent="WIyWlLk6GJQsqaUBKTNV-1">
          <mxGeometry x="-360" y="-950" width="120" height="60" as="geometry" />
        </mxCell>
        <mxCell id="JpFROwRJeTPu5kX1mH_b-331" style="edgeStyle=orthogonalEdgeStyle;rounded=0;orthogonalLoop=1;jettySize=auto;html=1;entryX=1;entryY=0.5;entryDx=0;entryDy=0;" edge="1" parent="WIyWlLk6GJQsqaUBKTNV-1" source="JpFROwRJeTPu5kX1mH_b-278" target="JpFROwRJeTPu5kX1mH_b-282">
          <mxGeometry relative="1" as="geometry" />
        </mxCell>
        <mxCell id="JpFROwRJeTPu5kX1mH_b-278" value="1st grade = 0" style="rounded=1;whiteSpace=wrap;html=1;" vertex="1" parent="WIyWlLk6GJQsqaUBKTNV-1">
          <mxGeometry x="-170" y="-835" width="90" height="30" as="geometry" />
        </mxCell>
        <mxCell id="JpFROwRJeTPu5kX1mH_b-288" style="edgeStyle=orthogonalEdgeStyle;rounded=0;orthogonalLoop=1;jettySize=auto;html=1;exitX=0.5;exitY=1;exitDx=0;exitDy=0;entryX=0.5;entryY=0;entryDx=0;entryDy=0;" edge="1" parent="WIyWlLk6GJQsqaUBKTNV-1" source="JpFROwRJeTPu5kX1mH_b-282" target="JpFROwRJeTPu5kX1mH_b-285">
          <mxGeometry relative="1" as="geometry" />
        </mxCell>
        <mxCell id="JpFROwRJeTPu5kX1mH_b-289" value="Yes" style="edgeLabel;html=1;align=center;verticalAlign=middle;resizable=0;points=[];" connectable="0" vertex="1" parent="JpFROwRJeTPu5kX1mH_b-288">
          <mxGeometry x="-0.3526" y="1" relative="1" as="geometry">
            <mxPoint as="offset" />
          </mxGeometry>
        </mxCell>
        <mxCell id="JpFROwRJeTPu5kX1mH_b-297" style="edgeStyle=orthogonalEdgeStyle;rounded=0;orthogonalLoop=1;jettySize=auto;html=1;exitX=0;exitY=0.5;exitDx=0;exitDy=0;entryX=1;entryY=0.5;entryDx=0;entryDy=0;" edge="1" parent="WIyWlLk6GJQsqaUBKTNV-1" source="JpFROwRJeTPu5kX1mH_b-282" target="JpFROwRJeTPu5kX1mH_b-291">
          <mxGeometry relative="1" as="geometry">
            <Array as="points">
              <mxPoint x="-360" y="-820" />
              <mxPoint x="-360" y="-820" />
            </Array>
          </mxGeometry>
        </mxCell>
        <mxCell id="JpFROwRJeTPu5kX1mH_b-298" value="No" style="edgeLabel;html=1;align=center;verticalAlign=middle;resizable=0;points=[];" connectable="0" vertex="1" parent="JpFROwRJeTPu5kX1mH_b-297">
          <mxGeometry x="-0.3041" y="-7" relative="1" as="geometry">
            <mxPoint as="offset" />
          </mxGeometry>
        </mxCell>
        <mxCell id="JpFROwRJeTPu5kX1mH_b-282" value="Grades.size&amp;gt;=2" style="rhombus;whiteSpace=wrap;html=1;" vertex="1" parent="WIyWlLk6GJQsqaUBKTNV-1">
          <mxGeometry x="-350" y="-860" width="100" height="80" as="geometry" />
        </mxCell>
        <mxCell id="JpFROwRJeTPu5kX1mH_b-285" value="calculate 2nd grade considering the credit for AVG" style="rounded=1;whiteSpace=wrap;html=1;" vertex="1" parent="WIyWlLk6GJQsqaUBKTNV-1">
          <mxGeometry x="-360" y="-740" width="120" height="60" as="geometry" />
        </mxCell>
        <mxCell id="JpFROwRJeTPu5kX1mH_b-334" style="edgeStyle=orthogonalEdgeStyle;rounded=0;orthogonalLoop=1;jettySize=auto;html=1;exitX=0.5;exitY=1;exitDx=0;exitDy=0;entryX=0.5;entryY=0;entryDx=0;entryDy=0;" edge="1" parent="WIyWlLk6GJQsqaUBKTNV-1" source="JpFROwRJeTPu5kX1mH_b-291" target="JpFROwRJeTPu5kX1mH_b-303">
          <mxGeometry relative="1" as="geometry" />
        </mxCell>
        <mxCell id="JpFROwRJeTPu5kX1mH_b-291" value="2nd grade = 0" style="rounded=1;whiteSpace=wrap;html=1;" vertex="1" parent="WIyWlLk6GJQsqaUBKTNV-1">
          <mxGeometry x="-518" y="-835" width="90" height="30" as="geometry" />
        </mxCell>
        <mxCell id="JpFROwRJeTPu5kX1mH_b-299" style="edgeStyle=orthogonalEdgeStyle;rounded=0;orthogonalLoop=1;jettySize=auto;html=1;exitX=0.5;exitY=1;exitDx=0;exitDy=0;entryX=0.5;entryY=0;entryDx=0;entryDy=0;" edge="1" parent="WIyWlLk6GJQsqaUBKTNV-1" source="JpFROwRJeTPu5kX1mH_b-303" target="JpFROwRJeTPu5kX1mH_b-304">
          <mxGeometry relative="1" as="geometry" />
        </mxCell>
        <mxCell id="JpFROwRJeTPu5kX1mH_b-300" value="Yes" style="edgeLabel;html=1;align=center;verticalAlign=middle;resizable=0;points=[];" connectable="0" vertex="1" parent="JpFROwRJeTPu5kX1mH_b-299">
          <mxGeometry x="-0.3526" y="1" relative="1" as="geometry">
            <mxPoint as="offset" />
          </mxGeometry>
        </mxCell>
        <mxCell id="JpFROwRJeTPu5kX1mH_b-301" style="edgeStyle=orthogonalEdgeStyle;rounded=0;orthogonalLoop=1;jettySize=auto;html=1;entryX=1;entryY=0.5;entryDx=0;entryDy=0;" edge="1" parent="WIyWlLk6GJQsqaUBKTNV-1" source="JpFROwRJeTPu5kX1mH_b-303" target="JpFROwRJeTPu5kX1mH_b-305">
          <mxGeometry relative="1" as="geometry">
            <Array as="points" />
          </mxGeometry>
        </mxCell>
        <mxCell id="JpFROwRJeTPu5kX1mH_b-302" value="No" style="edgeLabel;html=1;align=center;verticalAlign=middle;resizable=0;points=[];" connectable="0" vertex="1" parent="JpFROwRJeTPu5kX1mH_b-301">
          <mxGeometry x="-0.3041" y="-7" relative="1" as="geometry">
            <mxPoint as="offset" />
          </mxGeometry>
        </mxCell>
        <mxCell id="JpFROwRJeTPu5kX1mH_b-303" value="Grades.size&amp;gt;=3" style="rhombus;whiteSpace=wrap;html=1;" vertex="1" parent="WIyWlLk6GJQsqaUBKTNV-1">
          <mxGeometry x="-523" y="-750" width="100" height="80" as="geometry" />
        </mxCell>
        <mxCell id="JpFROwRJeTPu5kX1mH_b-322" style="edgeStyle=orthogonalEdgeStyle;rounded=0;orthogonalLoop=1;jettySize=auto;html=1;exitX=0.5;exitY=1;exitDx=0;exitDy=0;entryX=0.5;entryY=0;entryDx=0;entryDy=0;" edge="1" parent="WIyWlLk6GJQsqaUBKTNV-1" source="JpFROwRJeTPu5kX1mH_b-304" target="JpFROwRJeTPu5kX1mH_b-317">
          <mxGeometry relative="1" as="geometry" />
        </mxCell>
        <mxCell id="JpFROwRJeTPu5kX1mH_b-304" value="calculate 3rd grade considering the credit for AVG" style="rounded=1;whiteSpace=wrap;html=1;" vertex="1" parent="WIyWlLk6GJQsqaUBKTNV-1">
          <mxGeometry x="-533" y="-617" width="120" height="60" as="geometry" />
        </mxCell>
        <mxCell id="JpFROwRJeTPu5kX1mH_b-335" style="edgeStyle=orthogonalEdgeStyle;rounded=0;orthogonalLoop=1;jettySize=auto;html=1;exitX=0.5;exitY=1;exitDx=0;exitDy=0;entryX=0;entryY=0;entryDx=0;entryDy=0;" edge="1" parent="WIyWlLk6GJQsqaUBKTNV-1" target="JpFROwRJeTPu5kX1mH_b-317">
          <mxGeometry relative="1" as="geometry">
            <mxPoint x="-630" y="-695" as="sourcePoint" />
            <mxPoint x="-503" y="-500" as="targetPoint" />
            <Array as="points">
              <mxPoint x="-630" y="-540" />
              <mxPoint x="-498" y="-540" />
            </Array>
          </mxGeometry>
        </mxCell>
        <mxCell id="JpFROwRJeTPu5kX1mH_b-305" value="3rd grade = 0" style="rounded=1;whiteSpace=wrap;html=1;" vertex="1" parent="WIyWlLk6GJQsqaUBKTNV-1">
          <mxGeometry x="-670" y="-725" width="90" height="30" as="geometry" />
        </mxCell>
        <mxCell id="JpFROwRJeTPu5kX1mH_b-306" style="edgeStyle=orthogonalEdgeStyle;rounded=0;orthogonalLoop=1;jettySize=auto;html=1;exitX=0.5;exitY=1;exitDx=0;exitDy=0;" edge="1" parent="WIyWlLk6GJQsqaUBKTNV-1" source="JpFROwRJeTPu5kX1mH_b-285" target="JpFROwRJeTPu5kX1mH_b-285">
          <mxGeometry relative="1" as="geometry" />
        </mxCell>
        <mxCell id="JpFROwRJeTPu5kX1mH_b-307" style="edgeStyle=orthogonalEdgeStyle;rounded=0;orthogonalLoop=1;jettySize=auto;html=1;exitX=0;exitY=0.5;exitDx=0;exitDy=0;entryX=1;entryY=0.5;entryDx=0;entryDy=0;exitPerimeter=0;" edge="1" parent="WIyWlLk6GJQsqaUBKTNV-1" source="JpFROwRJeTPu5kX1mH_b-285" target="JpFROwRJeTPu5kX1mH_b-303">
          <mxGeometry relative="1" as="geometry">
            <Array as="points">
              <mxPoint x="-413" y="-710" />
              <mxPoint x="-413" y="-710" />
            </Array>
          </mxGeometry>
        </mxCell>
        <mxCell id="JpFROwRJeTPu5kX1mH_b-308" style="edgeStyle=orthogonalEdgeStyle;rounded=0;orthogonalLoop=1;jettySize=auto;html=1;exitX=0.5;exitY=1;exitDx=0;exitDy=0;" edge="1" parent="WIyWlLk6GJQsqaUBKTNV-1" source="JpFROwRJeTPu5kX1mH_b-305" target="JpFROwRJeTPu5kX1mH_b-305">
          <mxGeometry relative="1" as="geometry" />
        </mxCell>
        <mxCell id="JpFROwRJeTPu5kX1mH_b-310" style="edgeStyle=orthogonalEdgeStyle;rounded=0;orthogonalLoop=1;jettySize=auto;html=1;exitX=0.5;exitY=0;exitDx=0;exitDy=0;entryX=0.497;entryY=-0.55;entryDx=0;entryDy=0;entryPerimeter=0;" edge="1" parent="WIyWlLk6GJQsqaUBKTNV-1" source="JpFROwRJeTPu5kX1mH_b-304" target="JpFROwRJeTPu5kX1mH_b-304">
          <mxGeometry relative="1" as="geometry" />
        </mxCell>
        <mxCell id="JpFROwRJeTPu5kX1mH_b-313" style="edgeStyle=orthogonalEdgeStyle;rounded=0;orthogonalLoop=1;jettySize=auto;html=1;exitX=0.5;exitY=1;exitDx=0;exitDy=0;entryX=0.5;entryY=0;entryDx=0;entryDy=0;" edge="1" parent="WIyWlLk6GJQsqaUBKTNV-1" source="JpFROwRJeTPu5kX1mH_b-317" target="JpFROwRJeTPu5kX1mH_b-318">
          <mxGeometry relative="1" as="geometry" />
        </mxCell>
        <mxCell id="JpFROwRJeTPu5kX1mH_b-314" value="Yes" style="edgeLabel;html=1;align=center;verticalAlign=middle;resizable=0;points=[];" connectable="0" vertex="1" parent="JpFROwRJeTPu5kX1mH_b-313">
          <mxGeometry x="-0.3526" y="1" relative="1" as="geometry">
            <mxPoint as="offset" />
          </mxGeometry>
        </mxCell>
        <mxCell id="JpFROwRJeTPu5kX1mH_b-315" style="edgeStyle=orthogonalEdgeStyle;rounded=0;orthogonalLoop=1;jettySize=auto;html=1;exitX=0.03;exitY=0.5;exitDx=0;exitDy=0;entryX=1;entryY=0.5;entryDx=0;entryDy=0;exitPerimeter=0;entryPerimeter=0;" edge="1" parent="WIyWlLk6GJQsqaUBKTNV-1" source="JpFROwRJeTPu5kX1mH_b-317" target="JpFROwRJeTPu5kX1mH_b-319">
          <mxGeometry relative="1" as="geometry">
            <Array as="points">
              <mxPoint x="-550" y="-480" />
              <mxPoint x="-550" y="-480" />
            </Array>
            <mxPoint x="-533" y="-495" as="sourcePoint" />
            <mxPoint x="-590" y="-495" as="targetPoint" />
          </mxGeometry>
        </mxCell>
        <mxCell id="JpFROwRJeTPu5kX1mH_b-316" value="No" style="edgeLabel;html=1;align=center;verticalAlign=middle;resizable=0;points=[];" connectable="0" vertex="1" parent="JpFROwRJeTPu5kX1mH_b-315">
          <mxGeometry x="-0.3041" y="-7" relative="1" as="geometry">
            <mxPoint as="offset" />
          </mxGeometry>
        </mxCell>
        <mxCell id="JpFROwRJeTPu5kX1mH_b-317" value="Grades.size&amp;gt;=3" style="rhombus;whiteSpace=wrap;html=1;" vertex="1" parent="WIyWlLk6GJQsqaUBKTNV-1">
          <mxGeometry x="-523" y="-520" width="100" height="80" as="geometry" />
        </mxCell>
        <mxCell id="JpFROwRJeTPu5kX1mH_b-337" style="edgeStyle=orthogonalEdgeStyle;rounded=0;orthogonalLoop=1;jettySize=auto;html=1;exitX=0;exitY=0.5;exitDx=0;exitDy=0;entryX=1;entryY=0.5;entryDx=0;entryDy=0;" edge="1" parent="WIyWlLk6GJQsqaUBKTNV-1" source="JpFROwRJeTPu5kX1mH_b-318" target="JpFROwRJeTPu5kX1mH_b-336">
          <mxGeometry relative="1" as="geometry" />
        </mxCell>
        <mxCell id="JpFROwRJeTPu5kX1mH_b-318" value="calculate 4th grade considering the credit for AVG" style="rounded=1;whiteSpace=wrap;html=1;" vertex="1" parent="WIyWlLk6GJQsqaUBKTNV-1">
          <mxGeometry x="-533" y="-380" width="120" height="60" as="geometry" />
        </mxCell>
        <mxCell id="JpFROwRJeTPu5kX1mH_b-338" style="edgeStyle=orthogonalEdgeStyle;rounded=0;orthogonalLoop=1;jettySize=auto;html=1;exitX=0;exitY=0.5;exitDx=0;exitDy=0;entryX=0.5;entryY=0;entryDx=0;entryDy=0;" edge="1" parent="WIyWlLk6GJQsqaUBKTNV-1" source="JpFROwRJeTPu5kX1mH_b-319" target="JpFROwRJeTPu5kX1mH_b-336">
          <mxGeometry relative="1" as="geometry" />
        </mxCell>
        <mxCell id="JpFROwRJeTPu5kX1mH_b-319" value="4th grade = 0" style="rounded=1;whiteSpace=wrap;html=1;" vertex="1" parent="WIyWlLk6GJQsqaUBKTNV-1">
          <mxGeometry x="-670" y="-495" width="90" height="30" as="geometry" />
        </mxCell>
        <mxCell id="JpFROwRJeTPu5kX1mH_b-321" style="edgeStyle=orthogonalEdgeStyle;rounded=0;orthogonalLoop=1;jettySize=auto;html=1;exitX=0.5;exitY=1;exitDx=0;exitDy=0;" edge="1" parent="WIyWlLk6GJQsqaUBKTNV-1" source="JpFROwRJeTPu5kX1mH_b-318" target="JpFROwRJeTPu5kX1mH_b-318">
          <mxGeometry relative="1" as="geometry" />
        </mxCell>
        <mxCell id="JpFROwRJeTPu5kX1mH_b-332" style="edgeStyle=orthogonalEdgeStyle;rounded=0;orthogonalLoop=1;jettySize=auto;html=1;exitX=0.5;exitY=1;exitDx=0;exitDy=0;" edge="1" parent="WIyWlLk6GJQsqaUBKTNV-1" source="JpFROwRJeTPu5kX1mH_b-278" target="JpFROwRJeTPu5kX1mH_b-278">
          <mxGeometry relative="1" as="geometry" />
        </mxCell>
        <mxCell id="JpFROwRJeTPu5kX1mH_b-336" value="add 1st,2nd,3rd,4th grade to find average" style="rounded=1;whiteSpace=wrap;html=1;" vertex="1" parent="WIyWlLk6GJQsqaUBKTNV-1">
          <mxGeometry x="-790" y="-380" width="120" height="60" as="geometry" />
        </mxCell>
        <mxCell id="JpFROwRJeTPu5kX1mH_b-343" style="edgeStyle=orthogonalEdgeStyle;rounded=0;orthogonalLoop=1;jettySize=auto;html=1;exitX=0.5;exitY=1;exitDx=0;exitDy=0;entryX=0.5;entryY=0;entryDx=0;entryDy=0;" edge="1" parent="WIyWlLk6GJQsqaUBKTNV-1" source="JpFROwRJeTPu5kX1mH_b-340" target="JpFROwRJeTPu5kX1mH_b-342">
          <mxGeometry relative="1" as="geometry" />
        </mxCell>
        <mxCell id="JpFROwRJeTPu5kX1mH_b-340" value="calculates sum of first, second, third grade according to their credit" style="rounded=1;whiteSpace=wrap;html=1;" vertex="1" parent="WIyWlLk6GJQsqaUBKTNV-1">
          <mxGeometry x="170" y="-540" width="120" height="60" as="geometry" />
        </mxCell>
        <mxCell id="JpFROwRJeTPu5kX1mH_b-342" value="Predict required grade with formula:&lt;br&gt;(70_sum)/0.4" style="rounded=1;whiteSpace=wrap;html=1;" vertex="1" parent="WIyWlLk6GJQsqaUBKTNV-1">
          <mxGeometry x="170" y="-430" width="120" height="60" as="geometry" />
        </mxCell>
      </root>
    </mxGraphModel>
  </diagram>
</mxfile>
